<?xml version="1.0" encoding="utf-8"?>
<!-- Generator: Adobe Illustrator 16.0.0, SVG Export Plug-In . SVG Version: 6.00 Build 0)  -->
<!DOCTYPE svg PUBLIC "-//W3C//DTD SVG 1.1//EN" "http://www.w3.org/Graphics/SVG/1.1/DTD/svg11.dtd">
<svg version="1.1" id="Capa_1" xmlns="http://www.w3.org/2000/svg" xmlns:xlink="http://www.w3.org/1999/xlink" x="0px" y="0px"
	 width="612px" height="792px" viewBox="0 0 612 792" enable-background="new 0 0 612 792" xml:space="preserve">
<rect x="55.305" y="202.583" fill="#010202" width="498.358" height="394.354"/>
<rect x="55.305" y="202.583" fill="none" stroke="#FFFFFF" stroke-width="1.226" stroke-miterlimit="10" width="498.358" height="394.354"/>
<g>
	<circle fill="none" stroke="#FFFFFF" stroke-width="2.451" stroke-miterlimit="10" cx="303.373" cy="397.563" r="160.505"/>
	<polygon fill="#FFFFFF" points="180.055,468.376 180.055,449.626 181.104,449.626 181.104,467.302 186.382,467.302 
		186.382,468.376 	"/>
	<path fill="#FFFFFF" d="M197.175,468.376v-1.863c-1.139,1.365-2.583,2.048-4.333,2.048c-1.575,0-2.897-0.533-3.964-1.602
		c-1.087-1.085-1.629-2.415-1.629-3.99c0-1.577,0.534-2.899,1.602-3.967c1.086-1.084,2.417-1.626,3.992-1.626
		c1.733,0,3.177,0.681,4.333,2.047v-1.892h1.077v10.845H197.175z M196.046,459.764c-0.893-0.893-1.961-1.34-3.204-1.34
		c-1.261,0-2.329,0.438-3.204,1.314c-0.893,0.893-1.338,1.969-1.338,3.23c0,1.242,0.446,2.31,1.338,3.204
		c0.894,0.891,1.961,1.338,3.204,1.338c1.261,0,2.328-0.437,3.204-1.314c0.893-0.893,1.338-1.969,1.338-3.228
		C197.384,461.726,196.938,460.656,196.046,459.764"/>
	<path fill="#FFFFFF" d="M210.671,466.932c-1.084,1.086-2.417,1.629-3.992,1.629c-1.804,0-3.282-0.725-4.438-2.179v1.994h-1.077
		v-19.433h1.077v10.609c1.138-1.451,2.616-2.177,4.438-2.177c1.575,0,2.896,0.533,3.966,1.601c1.084,1.085,1.627,2.415,1.627,3.992
		C212.272,464.544,211.739,465.864,210.671,466.932 M209.883,459.764c-0.893-0.893-1.961-1.34-3.204-1.34
		c-1.26,0-2.329,0.438-3.203,1.314c-0.893,0.893-1.339,1.969-1.339,3.23c0,1.242,0.446,2.31,1.339,3.204
		c0.893,0.891,1.96,1.338,3.203,1.338c1.261,0,2.329-0.437,3.204-1.314c0.892-0.893,1.338-1.969,1.338-3.228
		C211.222,461.726,210.775,460.656,209.883,459.764"/>
	<path fill="#FFFFFF" d="M223.801,466.933c-1.086,1.084-2.417,1.627-3.992,1.627c-1.575,0-2.896-0.532-3.965-1.601
		c-1.086-1.085-1.627-2.415-1.627-3.99c0-1.56,0.541-2.88,1.627-3.967c1.069-1.103,2.391-1.653,3.965-1.653
		c1.559,0,2.88,0.542,3.964,1.628c1.086,1.086,1.629,2.415,1.629,3.992C225.402,464.544,224.869,465.864,223.801,466.933
		 M223.039,459.738c-0.875-0.893-1.953-1.339-3.23-1.339c-1.226,0-2.284,0.453-3.178,1.364c-0.911,0.911-1.364,1.978-1.364,3.205
		c0,1.244,0.446,2.31,1.338,3.204c0.892,0.891,1.96,1.337,3.204,1.337c1.26,0,2.329-0.437,3.204-1.313
		c0.893-0.893,1.338-1.968,1.338-3.228C224.352,461.69,223.915,460.613,223.039,459.738"/>
	<path fill="#FFFFFF" d="M233.229,459.133c-0.28-0.209-0.578-0.375-0.893-0.499c-0.315-0.122-0.649-0.184-0.998-0.184
		c-0.298,0-0.577,0.094-0.84,0.276c-0.263,0.184-0.49,0.413-0.683,0.684c-0.192,0.272-0.347,0.573-0.46,0.906
		c-0.112,0.33-0.171,0.639-0.171,0.917v7.143h-1.076v-10.844h1.076v1.47c0.229-0.402,0.527-0.77,0.895-1.103
		c0.367-0.332,0.77-0.499,1.208-0.499c0.542,0,0.989,0.063,1.338,0.184c0.351,0.123,0.744,0.341,1.182,0.657L233.229,459.133z"/>
	<path fill="#FFFFFF" d="M244.834,468.376v-1.863c-1.139,1.365-2.583,2.048-4.333,2.048c-1.575,0-2.897-0.533-3.964-1.602
		c-1.087-1.085-1.629-2.415-1.629-3.99c0-1.577,0.534-2.899,1.602-3.967c1.085-1.084,2.417-1.626,3.992-1.626
		c1.733,0,3.177,0.681,4.333,2.047v-1.892h1.077v10.845H244.834z M243.705,459.764c-0.893-0.893-1.961-1.34-3.204-1.34
		c-1.26,0-2.329,0.438-3.204,1.314c-0.893,0.893-1.338,1.969-1.338,3.23c0,1.242,0.446,2.31,1.338,3.204
		c0.894,0.891,1.961,1.338,3.204,1.338c1.261,0,2.328-0.437,3.204-1.314c0.893-0.893,1.338-1.969,1.338-3.228
		C245.043,461.726,244.598,460.656,243.705,459.764"/>
	<polygon fill="#FFFFFF" points="250.744,458.608 250.744,468.376 249.667,468.376 249.667,458.608 248.197,458.608 
		248.197,457.532 249.667,457.532 249.667,452.778 250.744,452.778 250.744,457.532 253.265,457.532 253.265,458.608 	"/>
	<path fill="#FFFFFF" d="M263.191,466.933c-1.086,1.084-2.417,1.627-3.991,1.627c-1.575,0-2.897-0.532-3.966-1.601
		c-1.086-1.085-1.627-2.415-1.627-3.99c0-1.56,0.541-2.88,1.627-3.967c1.069-1.103,2.391-1.653,3.966-1.653
		c1.558,0,2.879,0.542,3.963,1.628c1.086,1.086,1.629,2.415,1.629,3.992C264.792,464.544,264.258,465.864,263.191,466.933
		 M262.43,459.738c-0.875-0.893-1.953-1.339-3.23-1.339c-1.226,0-2.285,0.453-3.178,1.364c-0.91,0.911-1.364,1.978-1.364,3.205
		c0,1.244,0.446,2.31,1.338,3.204c0.892,0.891,1.959,1.337,3.204,1.337c1.259,0,2.328-0.437,3.204-1.313
		c0.893-0.893,1.338-1.968,1.338-3.228C263.741,461.69,263.305,460.613,262.43,459.738"/>
	<path fill="#FFFFFF" d="M272.617,459.133c-0.28-0.209-0.579-0.375-0.892-0.499c-0.316-0.122-0.65-0.184-0.999-0.184
		c-0.299,0-0.578,0.094-0.839,0.276c-0.264,0.184-0.491,0.413-0.683,0.684c-0.193,0.272-0.347,0.573-0.461,0.906
		c-0.112,0.33-0.171,0.639-0.171,0.917v7.143h-1.075v-10.844h1.075v1.47c0.229-0.402,0.528-0.77,0.895-1.103
		c0.366-0.332,0.77-0.499,1.208-0.499c0.542,0,0.989,0.063,1.338,0.184c0.35,0.123,0.745,0.341,1.182,0.657L272.617,459.133z"/>
	<path fill="#FFFFFF" d="M276.372,455.589c-0.191,0-0.393-0.079-0.603-0.236c-0.157-0.157-0.247-0.368-0.263-0.63
		c0-0.475,0.289-0.763,0.866-0.867c0.438,0,0.728,0.288,0.868,0.867C277.239,455.301,276.95,455.589,276.372,455.589
		 M275.82,457.532h1.077v10.845h-1.077V457.532z"/>
	<path fill="#FFFFFF" d="M289.238,466.933c-1.086,1.084-2.416,1.627-3.991,1.627s-2.896-0.532-3.965-1.601
		c-1.086-1.085-1.629-2.415-1.629-3.99c0-1.56,0.543-2.88,1.629-3.967c1.069-1.103,2.39-1.653,3.965-1.653
		c1.558,0,2.88,0.542,3.964,1.628c1.086,1.086,1.629,2.415,1.629,3.992C290.84,464.544,290.307,465.864,289.238,466.933
		 M288.479,459.738c-0.876-0.893-1.955-1.339-3.231-1.339c-1.226,0-2.284,0.453-3.178,1.364c-0.911,0.911-1.364,1.978-1.364,3.205
		c0,1.244,0.446,2.31,1.338,3.204c0.893,0.891,1.96,1.337,3.204,1.337c1.26,0,2.328-0.437,3.204-1.313
		c0.892-0.893,1.338-1.968,1.338-3.228C289.789,461.69,289.353,460.613,288.479,459.738"/>
	<path fill="#FFFFFF" d="M312.582,468.376v-7.482c0-0.666-0.22-1.243-0.657-1.733c-0.438-0.491-1.069-0.735-1.891-0.735
		c-1.698,0-2.548,0.822-2.548,2.469v7.482h-1.075v-7.482c0-0.736-0.247-1.321-0.737-1.76c-0.505-0.474-1.109-0.709-1.81-0.709
		c-0.718,0-1.322,0.228-1.813,0.682c-0.491,0.439-0.737,1.033-0.737,1.787v7.482h-1.075v-10.845h1.075v1.077
		c0.527-0.823,1.376-1.232,2.55-1.232c1.399,0,2.434,0.567,3.097,1.705c0.63-1.138,1.654-1.705,3.073-1.705
		c1.085,0,1.961,0.304,2.625,0.918c0.667,0.629,0.998,1.495,0.998,2.6v7.482H312.582z"/>
	<path fill="#FFFFFF" d="M324.032,467.432c-0.719,0.771-1.725,1.155-3.021,1.155c-1.275,0-2.266-0.376-2.966-1.129
		c-0.701-0.752-1.051-1.802-1.051-3.151v-6.774h1.078v6.774c0,1.034,0.225,1.829,0.682,2.39c0.471,0.56,1.224,0.84,2.257,0.84
		c2.013,0,3.021-1.075,3.021-3.229v-6.774h1.049v6.774C325.081,465.637,324.73,466.678,324.032,467.432"/>
	<path fill="#FFFFFF" d="M333.721,467.693c-0.7,0.596-1.542,0.893-2.521,0.893c-1.68,0-2.94-0.761-3.782-2.285l0.919-0.551
		c0.297,0.543,0.658,0.963,1.079,1.261c0.435,0.334,1.03,0.5,1.784,0.5c1.646,0,2.47-0.699,2.47-2.101
		c0-0.612-0.292-1.146-0.869-1.603c-0.175-0.105-0.425-0.223-0.749-0.354c-0.323-0.132-0.721-0.284-1.193-0.46
		c-0.876-0.315-1.504-0.629-1.89-0.945c-0.562-0.454-0.842-1.111-0.842-1.969c0-0.736,0.28-1.365,0.842-1.891
		c0.543-0.542,1.251-0.813,2.127-0.813c1.208,0,2.232,0.419,3.071,1.26l-0.789,0.684c-0.594-0.596-1.354-0.895-2.282-0.895
		c-1.262,0-1.892,0.553-1.892,1.655c0,0.49,0.192,0.893,0.578,1.206c0.314,0.247,0.813,0.483,1.497,0.712
		c0.594,0.209,1.086,0.405,1.471,0.589c0.384,0.186,0.674,0.346,0.866,0.487c0.753,0.578,1.129,1.354,1.129,2.337
		C334.745,466.354,334.402,467.115,333.721,467.693"/>
	<path fill="#FFFFFF" d="M337.814,455.589c-0.191,0-0.393-0.079-0.604-0.236c-0.155-0.157-0.244-0.368-0.262-0.63
		c0-0.475,0.289-0.763,0.865-0.867c0.438,0,0.728,0.288,0.867,0.867C338.682,455.301,338.394,455.589,337.814,455.589
		 M337.264,457.532h1.077v10.845h-1.077V457.532z"/>
	<path fill="#FFFFFF" d="M347.034,468.587c-1.613,0-2.951-0.533-4.019-1.603c-1.067-1.065-1.603-2.406-1.603-4.015
		c0-1.613,0.535-2.952,1.603-4.02c1.067-1.068,2.405-1.603,4.019-1.603c1.382,0,2.483,0.314,3.309,0.947v1.284l-0.684-0.446
		l-0.734-0.392c-0.667-0.229-1.296-0.342-1.891-0.342c-1.351,0-2.444,0.419-3.283,1.261c-0.858,0.856-1.287,1.959-1.287,3.31
		c0,1.328,0.429,2.422,1.287,3.28c0.856,0.857,1.951,1.286,3.283,1.286c1.26,0,2.361-0.42,3.309-1.259v1.339
		C349.362,468.264,348.258,468.587,347.034,468.587"/>
	<path fill="#FFFFFF" d="M360.897,468.376v-1.863c-1.138,1.365-2.583,2.048-4.333,2.048c-1.575,0-2.896-0.533-3.965-1.602
		c-1.087-1.085-1.627-2.415-1.627-3.99c0-1.577,0.532-2.899,1.6-3.967c1.086-1.084,2.417-1.626,3.992-1.626
		c1.733,0,3.177,0.681,4.333,2.047v-1.892h1.076v10.845H360.897z M359.769,459.764c-0.893-0.893-1.961-1.34-3.204-1.34
		c-1.26,0-2.33,0.438-3.204,1.314c-0.893,0.893-1.339,1.969-1.339,3.23c0,1.242,0.446,2.31,1.339,3.204
		c0.894,0.891,1.96,1.338,3.204,1.338c1.262,0,2.329-0.437,3.204-1.314c0.892-0.893,1.338-1.969,1.338-3.228
		C361.106,461.726,360.66,460.656,359.769,459.764"/>
	<rect x="365.467" y="448.943" fill="#FFFFFF" width="1.05" height="19.432"/>
	<path fill="#FFFFFF" d="M382.246,467.693c-0.7,0.596-1.542,0.893-2.521,0.893c-1.68,0-2.941-0.761-3.781-2.285l0.919-0.551
		c0.297,0.543,0.658,0.963,1.079,1.261c0.435,0.334,1.028,0.5,1.783,0.5c1.646,0,2.471-0.699,2.471-2.101
		c0-0.612-0.292-1.146-0.869-1.603c-0.176-0.105-0.424-0.223-0.749-0.354c-0.323-0.132-0.72-0.284-1.193-0.46
		c-0.876-0.315-1.505-0.629-1.892-0.945c-0.56-0.454-0.84-1.111-0.84-1.969c0-0.736,0.28-1.365,0.84-1.891
		c0.543-0.542,1.253-0.813,2.127-0.813c1.21,0,2.234,0.419,3.073,1.26l-0.789,0.684c-0.595-0.596-1.354-0.895-2.284-0.895
		c-1.261,0-1.89,0.553-1.89,1.655c0,0.49,0.192,0.893,0.578,1.206c0.314,0.247,0.813,0.483,1.497,0.712
		c0.594,0.209,1.086,0.405,1.471,0.589c0.384,0.186,0.674,0.346,0.866,0.487c0.752,0.578,1.128,1.354,1.128,2.337
		C383.27,466.354,382.928,467.115,382.246,467.693"/>
	<path fill="#FFFFFF" d="M392.513,467.432c-0.717,0.771-1.724,1.155-3.019,1.155c-1.278,0-2.269-0.376-2.968-1.129
		c-0.701-0.752-1.05-1.802-1.05-3.151v-6.774h1.078v6.774c0,1.034,0.227,1.829,0.681,2.39c0.472,0.56,1.226,0.84,2.259,0.84
		c2.011,0,3.019-1.075,3.019-3.229v-6.774h1.05v6.774C393.563,465.637,393.213,466.678,392.513,467.432"/>
	<path fill="#FFFFFF" d="M401.993,459.133c-0.28-0.209-0.579-0.375-0.894-0.499c-0.314-0.122-0.648-0.184-0.998-0.184
		c-0.298,0-0.575,0.094-0.84,0.276c-0.263,0.184-0.49,0.413-0.683,0.684c-0.191,0.272-0.346,0.573-0.46,0.906
		c-0.112,0.33-0.172,0.639-0.172,0.917v7.143h-1.075v-10.844h1.075v1.47c0.229-0.402,0.527-0.77,0.895-1.103
		c0.367-0.332,0.77-0.499,1.208-0.499c0.542,0,0.989,0.063,1.339,0.184c0.351,0.123,0.743,0.341,1.182,0.657L401.993,459.133z"/>
	<polygon fill="#FFFFFF" points="178.593,351.896 192.447,351.896 192.447,430.146 236.959,430.146 236.959,443.23 178.593,443.23 	
		"/>
	<polygon fill="#FFFFFF" points="249.914,351.896 262.998,351.896 289.166,411.417 314.823,351.896 327.906,351.896 327.906,443.23 
		314.053,443.23 314.053,386.275 313.796,386.275 294.683,430.146 283.138,430.146 264.024,386.275 263.768,386.275 263.768,443.23 
		249.914,443.23 	"/>
	<path fill="#FFFFFF" d="M348.297,421.037c6.927,5.517,16.163,9.109,25.912,9.109c11.289,0,18.088-5.132,18.088-12.7
		c0-6.413-3.72-11.289-11.93-12.315c-4.106-0.514-7.313-1.025-12.06-1.666c-15.777-2.182-24.243-12.442-24.243-25.655
		c0-15.651,10.903-26.682,29.76-26.682c11.288,0,21.293,3.977,29.632,9.493l-7.695,11.416c-6.672-4.232-14.497-7.056-22.579-7.056
		c-8.465,0-15.264,4.362-15.264,13.085c0,5.131,3.721,10.263,12.957,11.673c2.436,0.386,5.899,0.899,10.26,1.411
		c17.062,2.054,25.015,13.854,25.015,26.297c0,16.804-12.442,26.553-32.068,26.553c-13.468,0-25.271-4.104-34.891-12.571
		L348.297,421.037z"/>
	<path fill="none" stroke="#FFFFFF" stroke-width="4.902" stroke-miterlimit="10" d="M398.343,408.794
		c30.495-10.57,35.353-49.668,27.256-68.891c-11.111-26.373-33.776-36.621-60.255-32.967c-14.135,1.95-29.81,19.339-41.543,27.81
		c-14.712,10.619-18.91,8.812-38.53,2.513c-28.358-9.103-35.689-21.071-65.014,15.983h-41.668"/>
	
		<line fill="none" stroke="#010202" stroke-width="1.26" stroke-miterlimit="10" x1="178.593" y1="362.321" x2="403.456" y2="362.321"/>
	
		<line fill="none" stroke="#010202" stroke-width="1.26" stroke-miterlimit="10" x1="178.593" y1="365.446" x2="403.456" y2="365.446"/>
	
		<line fill="none" stroke="#010202" stroke-width="1.26" stroke-miterlimit="10" x1="178.593" y1="368.573" x2="403.456" y2="368.573"/>
	<line fill="none" stroke="#010202" stroke-width="1.26" stroke-miterlimit="10" x1="178.593" y1="371.7" x2="403.456" y2="371.7"/>
	
		<line fill="none" stroke="#010202" stroke-width="1.26" stroke-miterlimit="10" x1="178.593" y1="374.826" x2="403.456" y2="374.826"/>
	
		<line fill="none" stroke="#010202" stroke-width="1.26" stroke-miterlimit="10" x1="178.593" y1="377.951" x2="403.456" y2="377.951"/>
</g>
</svg>
