<?xml version="1.0" encoding="utf-8"?>
<!-- Generator: Adobe Illustrator 16.0.0, SVG Export Plug-In . SVG Version: 6.00 Build 0)  -->
<!DOCTYPE svg PUBLIC "-//W3C//DTD SVG 1.1//EN" "http://www.w3.org/Graphics/SVG/1.1/DTD/svg11.dtd">
<svg version="1.1" id="Capa_1" xmlns="http://www.w3.org/2000/svg" xmlns:xlink="http://www.w3.org/1999/xlink" x="0px" y="0px"
	 width="792px" height="612px" viewBox="0 0 792 612" enable-background="new 0 0 792 612" xml:space="preserve">
<g id="h">
	<path fill-rule="evenodd" clip-rule="evenodd" fill="#FFFFFF" d="M593.235,260.328c-2.527-25.274-14.733-45.539-35.058-61.041
		c-22.086-16.852-47.813-20.013-74.927-16.152c-10.921,1.555-20.279,6.684-28.798,13.067c-9.268,6.946-18.005,14.548-27.114,21.691
		c-7.256,5.687-14.568,11.332-22.157,16.596c-8.342,5.796-17.708,7.39-27.653,4.497c-13.491-3.924-26.962-7.919-40.405-11.979
		c-5.999-1.812-11.874-3.998-17.885-5.749c-15.841-4.622-30.241-1.784-43.165,8.167c-1.332,1.023-2.666,2.043-3.959,3.108
		c-8.456,6.973-15.739,15.01-22.485,23.488c-0.493,0.621-7.138,3.918-8.069,3.926c-6.857,0.052-13.721,0.167-20.581,0.274
		c0.182,1.269,0.103,2.568-0.307,3.832c-0.66,2.039-0.242,3.994,0.439,5.937c8.831-0.163,17.306,0.577,26.137,0.507
		c2.804-0.019,1.962,0.489,6.753-3.934c5.749-5.306,10.044-12.018,15.359-17.781c5.331-5.779,11.265-10.96,18.156-15.036
		c7.439-4.397,15.464-6.114,23.965-4.037c7.062,1.724,13.976,4.041,20.951,6.099c14.77,4.359,29.474,8.962,44.336,13.002
		c11.201,3.047,21.976,1.196,31.814-4.809c5.024-3.064,9.981-6.301,14.621-9.875c6.248-4.813,12.177-10.013,18.216-15.076
		c8.488-7.109,16.94-14.25,26.634-19.852c5.588-3.234,11.452-5.844,17.981-6.613c7.943-0.935,15.877-1.375,23.925-0.792
		c33.293,2.403,61.689,24.317,70.48,55.474c6.479,22.965,3.592,45.213-8.013,66.275c-5.29,9.598-12.81,17.348-22.423,23.119
		c-0.654,0.396-9.982,4.733-10.726,5.039c-0.1,1.952,0.402,3.323-0.328,5.152c1.739,0.418-0.051,1.187,1.309,2.452
		c0.28,0.26,1.882,1.268,2.125,1.554c0.179-0.018,10.024-4.211,10.208-4.224c16.479-9.181,27.465-22.597,34.151-39.447
		C592.732,292.078,594.85,276.45,593.235,260.328z"/>
	<g>
		<path fill="#FFFFFF" d="M183.005,359.846V256.46h66.068v14.084h-50.386v30.203h42.98v13.939h-42.98v31.073h50.386v14.086H183.005z
			"/>
		<path fill="#FFFFFF" d="M303.955,360.717c-10.745,0-20.038-3.921-27.153-11.036c-10.165-10.164-10.02-21.636-10.02-41.528
			s-0.145-31.364,10.02-41.529c7.115-7.115,16.408-11.035,27.153-11.035c19.022,0,33.252,11.181,36.882,31.8h-15.973
			c-2.468-10.455-9.438-17.715-20.909-17.715c-6.098,0-11.616,2.323-15.247,6.244c-5.082,5.518-6.243,11.472-6.243,32.235
			s1.161,26.718,6.243,32.235c3.63,3.921,9.148,6.243,15.247,6.243c11.472,0,18.586-7.26,21.055-17.715h15.827
			C337.353,349.535,322.687,360.717,303.955,360.717z"/>
		<path fill="#FFFFFF" d="M400.946,319.188h-23.523v40.658H361.74V256.46h39.206c20.183,0,33.105,13.358,33.105,31.364
			C434.052,305.829,421.129,319.188,400.946,319.188z M400.074,270.544h-22.651v34.414h22.651c10.891,0,18.295-6.244,18.295-17.134
			C418.369,276.934,410.965,270.544,400.074,270.544z"/>
		<path fill="#FFFFFF" d="M528.574,359.846v-69.118l-23.813,50.386h-11.617l-24.394-50.386v69.118h-15.683V256.46h15.683
			l30.202,64.324l29.621-64.324h15.683v103.386H528.574z"/>
	</g>
</g>
<g>
	<path fill="#FFFFFF" d="M185.462,388.591v-15.409h7.402v0.884h-6.518v5.611h6.518v0.95h-6.518v7.079h6.518v0.885H185.462z"/>
	<path fill="#FFFFFF" d="M199.231,388.03c-0.575,0.489-1.266,0.733-2.071,0.733c-1.381,0-2.417-0.626-3.108-1.879l0.755-0.453
		c0.244,0.447,0.54,0.792,0.885,1.036c0.36,0.274,0.849,0.412,1.468,0.412c1.352,0,2.029-0.576,2.029-1.727
		c0-0.504-0.238-0.942-0.712-1.318c-0.144-0.086-0.349-0.184-0.615-0.291c-0.266-0.108-0.593-0.233-0.981-0.378
		c-0.72-0.26-1.238-0.518-1.554-0.775c-0.461-0.374-0.69-0.914-0.69-1.619c0-0.605,0.229-1.122,0.69-1.555
		c0.446-0.445,1.028-0.668,1.748-0.668c0.993,0,1.835,0.344,2.525,1.034l-0.648,0.563c-0.489-0.489-1.115-0.733-1.877-0.733
		c-1.036,0-1.554,0.453-1.554,1.359c0,0.402,0.158,0.733,0.474,0.991c0.259,0.203,0.669,0.396,1.23,0.583
		c0.489,0.175,0.893,0.336,1.208,0.486c0.317,0.15,0.554,0.284,0.712,0.399c0.619,0.476,0.928,1.115,0.928,1.922
		C200.073,386.93,199.793,387.555,199.231,388.03z"/>
	<path fill="#FFFFFF" d="M206.203,388.764c-1.324,0-2.425-0.438-3.302-1.316c-0.878-0.878-1.316-1.979-1.316-3.303
		c0-1.323,0.438-2.424,1.316-3.302c0.877-0.878,1.978-1.316,3.302-1.316c1.137,0,2.043,0.258,2.72,0.777v1.057l-0.562-0.365
		l-0.604-0.325c-0.547-0.187-1.065-0.28-1.554-0.28c-1.107,0-2.007,0.346-2.697,1.036c-0.706,0.705-1.058,1.612-1.058,2.719
		c0,1.095,0.353,1.993,1.058,2.699c0.704,0.703,1.604,1.057,2.697,1.057c1.036,0,1.943-0.346,2.72-1.036v1.102
		C208.116,388.498,207.21,388.764,206.203,388.764z"/>
	<path fill="#FFFFFF" d="M215.894,387.813c-0.59,0.634-1.417,0.95-2.482,0.95c-1.05,0-1.864-0.309-2.439-0.928
		c-0.576-0.618-0.863-1.481-0.863-2.589v-5.57h0.885v5.57c0,0.849,0.187,1.502,0.562,1.963c0.388,0.461,1.007,0.69,1.856,0.69
		c1.655,0,2.482-0.886,2.482-2.653v-5.57h0.863v5.57C216.757,386.34,216.469,387.195,215.894,387.813z"/>
	<path fill="#FFFFFF" d="M219.649,383.951c0,1.209,0.324,2.165,0.971,2.87c0.676,0.72,1.604,1.079,2.784,1.079
		c0.604,0,1.151-0.1,1.64-0.303c0.619-0.258,1.172-0.782,1.662-1.574l0.798,0.367c-0.561,1.064-1.424,1.784-2.589,2.158
		c-0.447,0.143-0.95,0.215-1.511,0.215c-1.338,0-2.439-0.438-3.302-1.316c-0.878-0.878-1.317-1.979-1.317-3.303
		c0-1.337,0.432-2.438,1.295-3.302c0.877-0.878,1.986-1.316,3.324-1.316c1.323,0,2.417,0.41,3.281,1.23
		c0.878,0.821,1.316,1.886,1.316,3.194H219.649z M225.735,381.125c-0.676-0.491-1.454-0.735-2.331-0.735
		c-1.842,0-3.051,0.906-3.625,2.719h7.23C226.865,382.289,226.44,381.629,225.735,381.125z"/>
	<path fill="#FFFFFF" d="M230.289,388.591v-15.97h0.864v15.97H230.289z"/>
	<path fill="#FFFFFF" d="M241.686,388.591v-1.531c-0.938,1.121-2.123,1.683-3.561,1.683c-1.296,0-2.383-0.438-3.261-1.315
		c-0.893-0.894-1.338-1.986-1.338-3.282c0-1.295,0.439-2.38,1.317-3.258c0.892-0.894,1.986-1.338,3.282-1.338
		c1.422,0,2.611,0.561,3.561,1.684v-1.556h0.884v8.914H241.686z M240.758,381.512c-0.735-0.732-1.613-1.1-2.633-1.1
		c-1.038,0-1.916,0.359-2.635,1.078c-0.733,0.734-1.1,1.618-1.1,2.654c0,1.023,0.367,1.9,1.1,2.633
		c0.734,0.735,1.611,1.103,2.635,1.103c1.036,0,1.911-0.361,2.633-1.08c0.732-0.733,1.1-1.619,1.1-2.655
		C241.857,383.124,241.49,382.246,240.758,381.512z"/>
	<path fill="#FFFFFF" d="M254.915,388.764c-1.324,0-2.425-0.438-3.303-1.316c-0.877-0.878-1.316-1.979-1.316-3.303
		c0-1.323,0.439-2.424,1.316-3.302c0.878-0.878,1.979-1.316,3.303-1.316c1.136,0,2.042,0.258,2.718,0.777v1.057l-0.561-0.365
		l-0.604-0.325c-0.548-0.187-1.066-0.28-1.554-0.28c-1.109,0-2.007,0.346-2.698,1.036c-0.705,0.705-1.059,1.612-1.059,2.719
		c0,1.095,0.354,1.993,1.059,2.699c0.705,0.703,1.603,1.057,2.698,1.057c1.036,0,1.942-0.346,2.718-1.036v1.102
		C256.828,388.498,255.92,388.764,254.915,388.764z"/>
	<path fill="#FFFFFF" d="M266.029,387.404c-0.892,0.893-1.985,1.338-3.279,1.338c-1.296,0-2.382-0.438-3.26-1.315
		c-0.892-0.894-1.337-1.986-1.337-3.282c0-1.28,0.445-2.367,1.337-3.258c0.878-0.907,1.964-1.36,3.26-1.36
		c1.28,0,2.367,0.446,3.259,1.339c0.892,0.892,1.337,1.984,1.337,3.279C267.346,385.44,266.907,386.527,266.029,387.404z
		 M265.404,381.49c-0.719-0.733-1.605-1.101-2.654-1.101c-1.007,0-1.879,0.374-2.612,1.122c-0.748,0.749-1.122,1.627-1.122,2.633
		c0,1.023,0.366,1.9,1.101,2.633c0.733,0.735,1.611,1.103,2.633,1.103c1.036,0,1.912-0.361,2.633-1.08
		c0.733-0.733,1.099-1.619,1.099-2.655C266.482,383.096,266.123,382.21,265.404,381.49z"/>
	<path fill="#FFFFFF" d="M269.806,388.591v-15.97h0.864v15.97H269.806z"/>
	<path fill="#FFFFFF" d="M281.203,388.591v-1.531c-0.936,1.121-2.123,1.683-3.561,1.683c-1.296,0-2.383-0.438-3.261-1.315
		c-0.892-0.894-1.337-1.986-1.337-3.282c0-1.295,0.439-2.38,1.316-3.258c0.892-0.894,1.985-1.338,3.281-1.338
		c1.424,0,2.611,0.561,3.561,1.684v-1.556h0.884v8.914H281.203z M280.275,381.512c-0.735-0.732-1.613-1.1-2.633-1.1
		c-1.036,0-1.914,0.359-2.633,1.078c-0.735,0.734-1.101,1.618-1.101,2.654c0,1.023,0.366,1.9,1.101,2.633
		c0.733,0.735,1.611,1.103,2.633,1.103c1.036,0,1.912-0.361,2.633-1.08c0.733-0.733,1.1-1.619,1.1-2.655
		C281.375,383.124,281.008,382.246,280.275,381.512z"/>
	<path fill="#FFFFFF" d="M292.296,387.404c-0.892,0.893-1.985,1.338-3.281,1.338c-1.481,0-2.698-0.596-3.647-1.791v1.64h-0.886
		v-15.97h0.886v8.719c0.935-1.194,2.151-1.791,3.647-1.791c1.296,0,2.381,0.438,3.259,1.316c0.892,0.892,1.338,1.984,1.338,3.279
		C293.612,385.44,293.174,386.527,292.296,387.404z M291.648,381.512c-0.733-0.732-1.611-1.1-2.633-1.1
		c-1.036,0-1.914,0.359-2.633,1.078c-0.734,0.734-1.101,1.618-1.101,2.654c0,1.023,0.367,1.9,1.101,2.633
		c0.733,0.735,1.611,1.103,2.633,1.103c1.036,0,1.914-0.361,2.633-1.08c0.734-0.733,1.101-1.619,1.101-2.655
		C292.749,383.124,292.382,382.246,291.648,381.512z"/>
	<path fill="#FFFFFF" d="M303.086,387.404c-0.892,0.893-1.985,1.338-3.28,1.338c-1.296,0-2.382-0.438-3.26-1.315
		c-0.892-0.894-1.337-1.986-1.337-3.282c0-1.28,0.445-2.367,1.337-3.258c0.878-0.907,1.964-1.36,3.26-1.36
		c1.28,0,2.367,0.446,3.259,1.339c0.892,0.892,1.337,1.984,1.337,3.279C304.403,385.44,303.964,386.527,303.086,387.404z
		 M302.46,381.49c-0.719-0.733-1.605-1.101-2.654-1.101c-1.007,0-1.878,0.374-2.612,1.122c-0.748,0.749-1.122,1.627-1.122,2.633
		c0,1.023,0.366,1.9,1.101,2.633c0.733,0.735,1.611,1.103,2.633,1.103c1.036,0,1.913-0.361,2.633-1.08
		c0.733-0.733,1.1-1.619,1.1-2.655C303.54,383.096,303.18,382.21,302.46,381.49z"/>
	<path fill="#FFFFFF" d="M310.835,380.995c-0.231-0.175-0.476-0.311-0.734-0.412c-0.26-0.1-0.534-0.149-0.82-0.149
		c-0.246,0-0.476,0.075-0.691,0.226c-0.215,0.152-0.402,0.339-0.561,0.561c-0.159,0.225-0.285,0.473-0.379,0.745
		c-0.093,0.273-0.14,0.525-0.14,0.757v5.869h-0.885v-8.914h0.885v1.21c0.187-0.332,0.431-0.633,0.734-0.907
		c0.302-0.272,0.632-0.41,0.993-0.41c0.445,0,0.813,0.051,1.1,0.151c0.288,0.102,0.611,0.281,0.971,0.539L310.835,380.995z"/>
	<path fill="#FFFFFF" d="M320.373,388.591v-1.531c-0.936,1.121-2.122,1.683-3.562,1.683c-1.295,0-2.382-0.438-3.26-1.315
		c-0.892-0.894-1.337-1.986-1.337-3.282c0-1.295,0.438-2.38,1.316-3.258c0.892-0.894,1.985-1.338,3.28-1.338
		c1.425,0,2.611,0.561,3.562,1.684v-1.556h0.885v8.914H320.373z M319.445,381.512c-0.735-0.732-1.613-1.1-2.634-1.1
		c-1.035,0-1.913,0.359-2.633,1.078c-0.734,0.734-1.101,1.618-1.101,2.654c0,1.023,0.366,1.9,1.101,2.633
		c0.733,0.735,1.611,1.103,2.633,1.103c1.037,0,1.913-0.361,2.634-1.08c0.733-0.733,1.1-1.619,1.1-2.655
		C320.545,383.124,320.179,382.246,319.445,381.512z"/>
	<path fill="#FFFFFF" d="M325.229,380.563v8.028h-0.886v-8.028h-1.209v-0.886h1.209v-3.906h0.886v3.906h2.071v0.886H325.229z"/>
	<path fill="#FFFFFF" d="M329.892,378.08c-0.158,0-0.325-0.063-0.498-0.193c-0.128-0.13-0.201-0.303-0.215-0.519
		c0-0.388,0.237-0.625,0.713-0.713c0.359,0,0.596,0.238,0.711,0.713C330.603,377.842,330.365,378.08,329.892,378.08z
		 M329.438,388.591v-8.914h0.884v8.914H329.438z"/>
	<path fill="#FFFFFF" d="M336.624,388.979l-4.207-9.303h0.948l3.238,7.101l3.259-7.101h0.993L336.624,388.979z"/>
	<path fill="#FFFFFF" d="M350.137,388.591v-1.531c-0.937,1.121-2.123,1.683-3.562,1.683c-1.296,0-2.383-0.438-3.261-1.315
		c-0.892-0.894-1.337-1.986-1.337-3.282c0-1.295,0.438-2.38,1.316-3.258c0.892-0.894,1.985-1.338,3.281-1.338
		c1.424,0,2.61,0.561,3.562,1.684v-1.556h0.884v8.914H350.137z M349.208,381.512c-0.735-0.732-1.613-1.1-2.633-1.1
		c-1.036,0-1.914,0.359-2.633,1.078c-0.735,0.734-1.102,1.618-1.102,2.654c0,1.023,0.366,1.9,1.102,2.633
		c0.733,0.735,1.61,1.103,2.633,1.103c1.036,0,1.912-0.361,2.633-1.08c0.733-0.733,1.1-1.619,1.1-2.655
		C350.308,383.124,349.941,382.246,349.208,381.512z"/>
	<path fill="#FFFFFF" d="M366.883,388.591v-1.597c-0.948,1.165-2.157,1.748-3.624,1.748c-1.296,0-2.383-0.438-3.261-1.315
		c-0.892-0.894-1.337-1.986-1.337-3.282c0-1.295,0.438-2.38,1.316-3.258c0.892-0.894,1.985-1.338,3.281-1.338
		c1.424,0,2.633,0.581,3.624,1.747v-8.675h0.886v15.97H366.883z M365.892,381.512c-0.735-0.732-1.613-1.1-2.633-1.1
		c-1.036,0-1.914,0.359-2.633,1.078c-0.735,0.734-1.102,1.618-1.102,2.654c0,1.023,0.366,1.9,1.102,2.633
		c0.733,0.735,1.61,1.103,2.633,1.103c1.036,0,1.912-0.361,2.633-1.08c0.733-0.733,1.1-1.619,1.1-2.655
		C366.991,383.124,366.625,382.246,365.892,381.512z"/>
	<path fill="#FFFFFF" d="M370.574,383.951c0,1.209,0.323,2.165,0.972,2.87c0.676,0.72,1.604,1.079,2.785,1.079
		c0.604,0,1.149-0.1,1.64-0.303c0.617-0.258,1.172-0.782,1.661-1.574l0.799,0.367c-0.561,1.064-1.424,1.784-2.59,2.158
		c-0.445,0.143-0.949,0.215-1.51,0.215c-1.339,0-2.44-0.438-3.304-1.316c-0.877-0.878-1.316-1.979-1.316-3.303
		c0-1.337,0.433-2.438,1.296-3.302c0.876-0.878,1.985-1.316,3.324-1.316c1.322,0,2.416,0.41,3.279,1.23
		c0.877,0.821,1.316,1.886,1.316,3.194H370.574z M376.661,381.125c-0.677-0.491-1.453-0.735-2.33-0.735
		c-1.843,0-3.052,0.906-3.627,2.719h7.23C377.791,382.289,377.366,381.629,376.661,381.125z"/>
	<path fill="#FFFFFF" d="M394.271,387.404c-0.892,0.893-1.985,1.338-3.281,1.338c-1.481,0-2.704-0.604-3.669-1.813v5.849h-0.884
		v-13.102h0.884v1.684c0.922-1.208,2.146-1.812,3.669-1.812c1.296,0,2.383,0.438,3.261,1.316c0.892,0.892,1.337,1.984,1.337,3.279
		C395.588,385.44,395.149,386.527,394.271,387.404z M393.625,381.512c-0.735-0.732-1.612-1.1-2.635-1.1
		c-1.034,0-1.913,0.359-2.633,1.078c-0.733,0.734-1.1,1.618-1.1,2.654c0,1.023,0.366,1.9,1.1,2.633
		c0.735,0.735,1.611,1.103,2.633,1.103c1.036,0,1.914-0.361,2.635-1.08c0.733-0.733,1.1-1.619,1.1-2.655
		C394.725,383.124,394.358,382.246,393.625,381.512z"/>
	<path fill="#FFFFFF" d="M401.762,380.995c-0.231-0.175-0.476-0.311-0.733-0.412c-0.26-0.1-0.534-0.149-0.82-0.149
		c-0.246,0-0.476,0.075-0.691,0.226c-0.215,0.152-0.402,0.339-0.561,0.561c-0.158,0.225-0.285,0.473-0.379,0.745
		c-0.094,0.273-0.139,0.525-0.139,0.757v5.869h-0.886v-8.914h0.886v1.21c0.187-0.332,0.431-0.633,0.733-0.907
		c0.302-0.272,0.632-0.41,0.993-0.41c0.445,0,0.813,0.051,1.1,0.151c0.288,0.102,0.611,0.281,0.971,0.539L401.762,380.995z"/>
	<path fill="#FFFFFF" d="M410.092,387.404c-0.893,0.893-1.985,1.338-3.279,1.338c-1.296,0-2.383-0.438-3.261-1.315
		c-0.892-0.894-1.337-1.986-1.337-3.282c0-1.28,0.445-2.367,1.337-3.258c0.878-0.907,1.965-1.36,3.261-1.36
		c1.28,0,2.366,0.446,3.259,1.339c0.892,0.892,1.337,1.984,1.337,3.279C411.408,385.44,410.97,386.527,410.092,387.404z
		 M409.466,381.49c-0.719-0.733-1.604-1.101-2.653-1.101c-1.008,0-1.879,0.374-2.612,1.122c-0.748,0.749-1.122,1.627-1.122,2.633
		c0,1.023,0.366,1.9,1.101,2.633c0.734,0.735,1.611,1.103,2.634,1.103c1.036,0,1.912-0.361,2.633-1.08
		c0.733-0.733,1.1-1.619,1.1-2.655C410.545,383.096,410.185,382.21,409.466,381.49z"/>
	<path fill="#FFFFFF" d="M421.357,388.591v-1.597c-0.949,1.165-2.158,1.748-3.625,1.748c-1.296,0-2.383-0.438-3.261-1.315
		c-0.892-0.894-1.337-1.986-1.337-3.282c0-1.295,0.438-2.38,1.316-3.258c0.893-0.894,1.985-1.338,3.281-1.338
		c1.424,0,2.633,0.581,3.625,1.747v-8.675h0.885v15.97H421.357z M420.365,381.512c-0.735-0.732-1.612-1.1-2.633-1.1
		c-1.036,0-1.914,0.359-2.633,1.078c-0.735,0.734-1.102,1.618-1.102,2.654c0,1.023,0.366,1.9,1.102,2.633
		c0.733,0.735,1.611,1.103,2.633,1.103c1.036,0,1.912-0.361,2.633-1.08c0.733-0.733,1.1-1.619,1.1-2.655
		C421.465,383.124,421.099,382.246,420.365,381.512z"/>
	<path fill="#FFFFFF" d="M430.552,387.813c-0.589,0.634-1.418,0.95-2.482,0.95c-1.05,0-1.863-0.309-2.438-0.928
		c-0.574-0.618-0.863-1.481-0.863-2.589v-5.57h0.886v5.57c0,0.849,0.188,1.502,0.561,1.963c0.389,0.461,1.007,0.69,1.855,0.69
		c1.655,0,2.482-0.886,2.482-2.653v-5.57h0.863v5.57C431.415,386.34,431.127,387.195,430.552,387.813z"/>
	<path fill="#FFFFFF" d="M438.343,388.764c-1.324,0-2.425-0.438-3.303-1.316s-1.316-1.979-1.316-3.303
		c0-1.323,0.438-2.424,1.316-3.302s1.979-1.316,3.303-1.316c1.137,0,2.043,0.258,2.719,0.777v1.057l-0.561-0.365l-0.604-0.325
		c-0.548-0.187-1.066-0.28-1.555-0.28c-1.108,0-2.007,0.346-2.697,1.036c-0.705,0.705-1.059,1.612-1.059,2.719
		c0,1.095,0.354,1.993,1.059,2.699c0.705,0.703,1.603,1.057,2.697,1.057c1.036,0,1.942-0.346,2.719-1.036v1.102
		C440.257,388.498,439.35,388.764,438.343,388.764z"/>
	<path fill="#FFFFFF" d="M447.171,388.764c-1.325,0-2.426-0.438-3.304-1.316s-1.316-1.979-1.316-3.303
		c0-1.323,0.438-2.424,1.316-3.302s1.979-1.316,3.304-1.316c1.136,0,2.042,0.258,2.718,0.777v1.057l-0.561-0.365l-0.604-0.325
		c-0.548-0.187-1.066-0.28-1.554-0.28c-1.109,0-2.008,0.346-2.698,1.036c-0.705,0.705-1.059,1.612-1.059,2.719
		c0,1.095,0.354,1.993,1.059,2.699c0.705,0.703,1.604,1.057,2.698,1.057c1.036,0,1.941-0.346,2.718-1.036v1.102
		C449.084,388.498,448.177,388.764,447.171,388.764z"/>
	<path fill="#FFFFFF" d="M452.501,378.08c-0.158,0-0.324-0.063-0.497-0.193c-0.128-0.13-0.201-0.303-0.216-0.519
		c0-0.388,0.238-0.625,0.713-0.713c0.36,0,0.596,0.238,0.712,0.713C453.213,377.842,452.976,378.08,452.501,378.08z
		 M452.048,388.591v-8.914h0.885v8.914H452.048z"/>
	<path fill="#FFFFFF" d="M463.076,387.404c-0.892,0.893-1.985,1.338-3.279,1.338c-1.296,0-2.383-0.438-3.261-1.315
		c-0.892-0.894-1.337-1.986-1.337-3.282c0-1.28,0.445-2.367,1.337-3.258c0.878-0.907,1.965-1.36,3.261-1.36
		c1.28,0,2.367,0.446,3.259,1.339c0.892,0.892,1.337,1.984,1.337,3.279C464.393,385.44,463.954,386.527,463.076,387.404z
		 M462.45,381.49c-0.719-0.733-1.604-1.101-2.653-1.101c-1.008,0-1.879,0.374-2.612,1.122c-0.748,0.749-1.122,1.627-1.122,2.633
		c0,1.023,0.366,1.9,1.102,2.633c0.733,0.735,1.611,1.103,2.633,1.103c1.036,0,1.912-0.361,2.633-1.08
		c0.733-0.733,1.1-1.619,1.1-2.655C463.529,383.096,463.17,382.21,462.45,381.49z M459.387,378.47l-0.54-0.498l2.893-2.893
		l0.474,0.52L459.387,378.47z"/>
	<path fill="#FFFFFF" d="M472.615,388.591v-5.33c0-1.886-0.85-2.827-2.546-2.827c-0.835,0-1.468,0.244-1.899,0.732
		c-0.447,0.491-0.669,1.159-0.669,2.009v5.416h-0.886v-8.914h0.886v1.08c0.402-0.792,1.258-1.188,2.568-1.188
		c1.107,0,1.956,0.316,2.546,0.95c0.591,0.634,0.885,1.518,0.885,2.655v5.416H472.615z"/>
	<path fill="#FFFFFF" d="M491.996,388.591v-6.151c0-0.546-0.179-1.02-0.538-1.424c-0.361-0.402-0.878-0.604-1.555-0.604
		c-1.396,0-2.094,0.675-2.094,2.027v6.151h-0.885v-6.151c0-0.604-0.202-1.087-0.604-1.444c-0.417-0.39-0.914-0.583-1.489-0.583
		c-0.59,0-1.087,0.187-1.489,0.561c-0.402,0.359-0.604,0.85-0.604,1.467v6.151h-0.886v-8.914h0.886v0.886
		c0.431-0.677,1.13-1.014,2.093-1.014c1.151,0,1.999,0.467,2.547,1.401c0.519-0.935,1.359-1.401,2.525-1.401
		c0.893,0,1.611,0.252,2.158,0.755c0.546,0.517,0.82,1.229,0.82,2.136v6.151H491.996z"/>
	<path fill="#FFFFFF" d="M501.406,387.813c-0.589,0.634-1.417,0.95-2.482,0.95c-1.05,0-1.862-0.309-2.438-0.928
		c-0.575-0.618-0.863-1.481-0.863-2.589v-5.57h0.885v5.57c0,0.849,0.188,1.502,0.562,1.963c0.388,0.461,1.006,0.69,1.854,0.69
		c1.656,0,2.482-0.886,2.482-2.653v-5.57h0.864v5.57C502.271,386.34,501.981,387.195,501.406,387.813z"/>
	<path fill="#FFFFFF" d="M509.37,388.03c-0.576,0.489-1.267,0.733-2.071,0.733c-1.382,0-2.418-0.626-3.108-1.879l0.756-0.453
		c0.243,0.447,0.538,0.792,0.884,1.036c0.359,0.274,0.849,0.412,1.469,0.412c1.351,0,2.027-0.576,2.027-1.727
		c0-0.504-0.236-0.942-0.711-1.318c-0.145-0.086-0.349-0.184-0.615-0.291c-0.268-0.108-0.594-0.233-0.982-0.378
		c-0.719-0.26-1.237-0.518-1.554-0.775c-0.461-0.374-0.69-0.914-0.69-1.619c0-0.605,0.229-1.122,0.69-1.555
		c0.445-0.445,1.028-0.668,1.747-0.668c0.993,0,1.835,0.344,2.525,1.034l-0.646,0.563c-0.489-0.489-1.115-0.733-1.879-0.733
		c-1.036,0-1.554,0.453-1.554,1.359c0,0.402,0.158,0.733,0.476,0.991c0.26,0.203,0.67,0.396,1.23,0.583
		c0.488,0.175,0.892,0.336,1.209,0.486c0.315,0.15,0.553,0.284,0.711,0.399c0.62,0.476,0.929,1.115,0.929,1.922
		C510.212,386.93,509.932,387.555,509.37,388.03z"/>
	<path fill="#FFFFFF" d="M512.737,378.08c-0.158,0-0.325-0.063-0.498-0.193c-0.128-0.13-0.201-0.303-0.215-0.519
		c0-0.388,0.237-0.625,0.713-0.713c0.359,0,0.596,0.238,0.711,0.713C513.448,377.842,513.211,378.08,512.737,378.08z
		 M512.284,388.591v-8.914h0.884v8.914H512.284z"/>
	<path fill="#FFFFFF" d="M520.313,388.764c-1.324,0-2.425-0.438-3.303-1.316s-1.316-1.979-1.316-3.303
		c0-1.323,0.438-2.424,1.316-3.302s1.979-1.316,3.303-1.316c1.137,0,2.042,0.258,2.719,0.777v1.057l-0.561-0.365l-0.604-0.325
		c-0.548-0.187-1.066-0.28-1.555-0.28c-1.108,0-2.007,0.346-2.697,1.036c-0.705,0.705-1.059,1.612-1.059,2.719
		c0,1.095,0.354,1.993,1.059,2.699c0.705,0.703,1.603,1.057,2.697,1.057c1.036,0,1.942-0.346,2.719-1.036v1.102
		C522.227,388.498,521.319,388.764,520.313,388.764z"/>
	<path fill="#FFFFFF" d="M531.71,388.591v-1.531c-0.937,1.121-2.123,1.683-3.562,1.683c-1.296,0-2.383-0.438-3.261-1.315
		c-0.892-0.894-1.337-1.986-1.337-3.282c0-1.295,0.439-2.38,1.316-3.258c0.893-0.894,1.985-1.338,3.281-1.338
		c1.425,0,2.611,0.561,3.562,1.684v-1.556h0.884v8.914H531.71z M530.781,381.512c-0.735-0.732-1.612-1.1-2.633-1.1
		c-1.036,0-1.914,0.359-2.633,1.078c-0.735,0.734-1.102,1.618-1.102,2.654c0,1.023,0.366,1.9,1.102,2.633
		c0.733,0.735,1.611,1.103,2.633,1.103c1.036,0,1.912-0.361,2.633-1.08c0.733-0.733,1.1-1.619,1.1-2.655
		C531.881,383.124,531.515,382.246,530.781,381.512z"/>
	<path fill="#FFFFFF" d="M535.465,388.591v-15.97h0.863v15.97H535.465z"/>
	<path fill="#FFFFFF" d="M549.257,388.03c-0.577,0.489-1.268,0.733-2.072,0.733c-1.382,0-2.418-0.626-3.108-1.879l0.756-0.453
		c0.244,0.447,0.539,0.792,0.884,1.036c0.359,0.274,0.85,0.412,1.469,0.412c1.352,0,2.028-0.576,2.028-1.727
		c0-0.504-0.236-0.942-0.712-1.318c-0.145-0.086-0.349-0.184-0.614-0.291c-0.268-0.108-0.595-0.233-0.982-0.378
		c-0.72-0.26-1.237-0.518-1.554-0.775c-0.462-0.374-0.691-0.914-0.691-1.619c0-0.605,0.229-1.122,0.691-1.555
		c0.444-0.445,1.027-0.668,1.747-0.668c0.993,0,1.834,0.344,2.525,1.034l-0.646,0.563c-0.489-0.489-1.115-0.733-1.879-0.733
		c-1.036,0-1.555,0.453-1.555,1.359c0,0.402,0.159,0.733,0.476,0.991c0.26,0.203,0.67,0.396,1.231,0.583
		c0.487,0.175,0.892,0.336,1.208,0.486c0.315,0.15,0.553,0.284,0.712,0.399c0.619,0.476,0.928,1.115,0.928,1.922
		C550.098,386.93,549.817,387.555,549.257,388.03z"/>
	<path fill="#FFFFFF" d="M557.694,387.813c-0.589,0.634-1.418,0.95-2.482,0.95c-1.051,0-1.863-0.309-2.438-0.928
		c-0.575-0.618-0.863-1.481-0.863-2.589v-5.57h0.886v5.57c0,0.849,0.188,1.502,0.561,1.963c0.389,0.461,1.006,0.69,1.855,0.69
		c1.655,0,2.482-0.886,2.482-2.653v-5.57h0.863v5.57C558.558,386.34,558.27,387.195,557.694,387.813z"/>
	<path fill="#FFFFFF" d="M565.485,380.995c-0.23-0.175-0.475-0.311-0.733-0.412c-0.26-0.1-0.534-0.149-0.82-0.149
		c-0.246,0-0.476,0.075-0.69,0.226c-0.216,0.152-0.402,0.339-0.562,0.561c-0.158,0.225-0.285,0.473-0.378,0.745
		c-0.094,0.273-0.14,0.525-0.14,0.757v5.869h-0.886v-8.914h0.886v1.21c0.187-0.332,0.431-0.633,0.733-0.907
		c0.303-0.272,0.632-0.41,0.993-0.41c0.445,0,0.813,0.051,1.1,0.151c0.288,0.102,0.611,0.281,0.971,0.539L565.485,380.995z"/>
</g>
<circle fill="none" stroke="#FFFFFF" stroke-width="10" stroke-miterlimit="10" cx="384.93" cy="297.523" r="264.866"/>
</svg>
