<?xml version="1.0" encoding="utf-8"?>
<!-- Generator: Adobe Illustrator 16.0.0, SVG Export Plug-In . SVG Version: 6.00 Build 0)  -->
<!DOCTYPE svg PUBLIC "-//W3C//DTD SVG 1.1//EN" "http://www.w3.org/Graphics/SVG/1.1/DTD/svg11.dtd">
<svg version="1.1" id="Capa_1" xmlns="http://www.w3.org/2000/svg" xmlns:xlink="http://www.w3.org/1999/xlink" x="0px" y="0px"
	 width="612px" height="792px" viewBox="0 0 612 792" enable-background="new 0 0 612 792" xml:space="preserve">
<g>
	<circle fill="none" stroke="#010202" stroke-width="2.483" stroke-miterlimit="10" cx="306" cy="376.006" r="222.901"/>
	<polygon points="134.741,474.349 134.741,448.312 136.197,448.312 136.197,472.854 143.528,472.854 143.528,474.349 	"/>
	<path d="M158.518,474.351v-2.59c-1.581,1.895-3.585,2.844-6.016,2.844c-2.189,0-4.024-0.741-5.507-2.225
		c-1.508-1.506-2.261-3.355-2.261-5.544c0-2.189,0.74-4.023,2.223-5.507c1.507-1.506,3.356-2.26,5.545-2.26
		c2.406,0,4.41,0.95,6.016,2.845v-2.626h1.496v15.063H158.518z M156.95,462.387c-1.239-1.239-2.723-1.859-4.448-1.859
		c-1.751,0-3.235,0.609-4.451,1.823c-1.24,1.241-1.858,2.737-1.858,4.485c0,1.728,0.619,3.21,1.858,4.449
		c1.24,1.24,2.722,1.86,4.451,1.86c1.748,0,3.231-0.605,4.448-1.823c1.239-1.238,1.859-2.734,1.859-4.486
		C158.809,465.11,158.189,463.627,156.95,462.387"/>
	<path d="M177.26,472.344c-1.506,1.508-3.356,2.261-5.542,2.261c-2.506,0-4.56-1.01-6.163-3.028v2.774h-1.496v-26.989h1.496v14.734
		c1.58-2.018,3.634-3.026,6.163-3.026c2.186,0,4.022,0.741,5.505,2.225c1.507,1.506,2.262,3.353,2.262,5.542
		C179.484,469.024,178.744,470.861,177.26,472.344 M176.166,462.387c-1.239-1.239-2.723-1.859-4.448-1.859
		c-1.75,0-3.234,0.609-4.45,1.823c-1.239,1.241-1.858,2.737-1.858,4.485c0,1.728,0.619,3.21,1.858,4.449
		c1.24,1.24,2.723,1.86,4.45,1.86c1.749,0,3.231-0.605,4.448-1.823c1.239-1.238,1.86-2.734,1.86-4.486
		C178.026,465.11,177.405,463.627,176.166,462.387"/>
	<path d="M195.493,472.344c-1.506,1.506-3.353,2.263-5.542,2.263c-2.188,0-4.023-0.743-5.506-2.228
		c-1.509-1.508-2.262-3.354-2.262-5.543c0-2.162,0.753-3.997,2.262-5.507c1.483-1.531,3.318-2.296,5.506-2.296
		c2.164,0,3.998,0.753,5.506,2.261c1.507,1.506,2.261,3.354,2.261,5.542C197.717,469.025,196.976,470.861,195.493,472.344
		 M194.437,462.352c-1.216-1.239-2.713-1.859-4.486-1.859c-1.702,0-3.173,0.632-4.412,1.896c-1.267,1.266-1.896,2.744-1.896,4.447
		c0,1.728,0.619,3.21,1.859,4.451c1.241,1.238,2.723,1.858,4.449,1.858c1.751,0,3.235-0.605,4.448-1.821
		c1.24-1.242,1.86-2.736,1.86-4.488C196.259,465.063,195.653,463.567,194.437,462.352"/>
	<path d="M208.586,461.511c-0.389-0.288-0.801-0.521-1.239-0.689c-0.438-0.172-0.9-0.258-1.385-0.258
		c-0.416,0-0.803,0.128-1.167,0.384c-0.366,0.256-0.682,0.573-0.949,0.947c-0.268,0.378-0.48,0.797-0.639,1.26
		c-0.158,0.46-0.238,0.887-0.238,1.275v9.917h-1.493v-15.059h1.493v2.041c0.319-0.558,0.732-1.069,1.243-1.531
		c0.508-0.462,1.068-0.693,1.676-0.693c0.753,0,1.376,0.088,1.86,0.255c0.488,0.172,1.032,0.476,1.641,0.912L208.586,461.511z"/>
	<path d="M224.704,474.351v-2.59c-1.581,1.895-3.586,2.844-6.016,2.844c-2.188,0-4.023-0.741-5.506-2.225
		c-1.508-1.506-2.262-3.355-2.262-5.544c0-2.189,0.741-4.023,2.225-5.507c1.506-1.506,3.356-2.26,5.544-2.26
		c2.407,0,4.411,0.95,6.016,2.845v-2.626h1.496v15.063H224.704z M223.136,462.387c-1.24-1.239-2.723-1.859-4.448-1.859
		c-1.751,0-3.234,0.609-4.45,1.823c-1.239,1.241-1.858,2.737-1.858,4.485c0,1.728,0.619,3.21,1.858,4.449
		c1.239,1.24,2.723,1.86,4.45,1.86c1.749,0,3.232-0.605,4.448-1.823c1.239-1.238,1.86-2.734,1.86-4.486
		C224.997,465.11,224.375,463.627,223.136,462.387"/>
	<polygon points="232.911,460.782 232.911,474.349 231.415,474.349 231.415,460.782 229.374,460.782 229.374,459.291 
		231.415,459.291 231.415,452.687 232.911,452.687 232.911,459.291 236.412,459.291 236.412,460.782 	"/>
	<path d="M250.196,472.344c-1.507,1.506-3.354,2.263-5.543,2.263s-4.022-0.743-5.507-2.228c-1.508-1.508-2.261-3.354-2.261-5.543
		c0-2.162,0.752-3.997,2.261-5.507c1.484-1.531,3.318-2.296,5.507-2.296c2.164,0,3.999,0.753,5.507,2.261
		c1.507,1.506,2.26,3.354,2.26,5.542C252.42,469.025,251.679,470.861,250.196,472.344 M249.14,462.352
		c-1.217-1.239-2.712-1.859-4.486-1.859c-1.702,0-3.172,0.632-4.412,1.896c-1.267,1.266-1.896,2.744-1.896,4.447
		c0,1.728,0.618,3.21,1.858,4.451c1.241,1.238,2.723,1.858,4.45,1.858c1.75,0,3.234-0.605,4.449-1.821
		c1.239-1.242,1.86-2.736,1.86-4.488C250.962,465.063,250.355,463.567,249.14,462.352"/>
	<path d="M263.288,461.511c-0.39-0.288-0.802-0.521-1.24-0.689c-0.438-0.172-0.9-0.258-1.385-0.258
		c-0.416,0-0.803,0.128-1.167,0.384c-0.366,0.256-0.682,0.573-0.949,0.947c-0.268,0.378-0.482,0.797-0.639,1.26
		c-0.158,0.46-0.239,0.887-0.239,1.275v9.917h-1.492v-15.059h1.492v2.041c0.319-0.558,0.732-1.069,1.244-1.531
		c0.508-0.462,1.067-0.693,1.675-0.693c0.753,0,1.376,0.088,1.861,0.255c0.488,0.172,1.033,0.476,1.642,0.912L263.288,461.511z"/>
	<path d="M268.501,456.59c-0.267,0-0.544-0.109-0.837-0.328c-0.219-0.219-0.34-0.512-0.364-0.876c0-0.657,0.4-1.059,1.201-1.203
		c0.609,0,1.008,0.402,1.207,1.203C269.708,456.188,269.304,456.59,268.501,456.59 M267.737,459.288h1.496v15.063h-1.496V459.288z"
		/>
	<path d="M286.37,472.344c-1.507,1.506-3.354,2.263-5.542,2.263c-2.188,0-4.022-0.743-5.506-2.228
		c-1.508-1.508-2.262-3.354-2.262-5.543c0-2.162,0.753-3.997,2.262-5.507c1.483-1.531,3.318-2.296,5.506-2.296
		c2.164,0,3.998,0.753,5.507,2.261c1.506,1.506,2.259,3.354,2.259,5.542C288.593,469.025,287.853,470.861,286.37,472.344
		 M285.313,462.352c-1.216-1.239-2.711-1.859-4.486-1.859c-1.702,0-3.173,0.632-4.412,1.896c-1.267,1.266-1.896,2.744-1.896,4.447
		c0,1.728,0.619,3.21,1.857,4.451c1.243,1.238,2.723,1.858,4.451,1.858c1.751,0,3.234-0.605,4.448-1.821
		c1.241-1.242,1.861-2.736,1.861-4.488C287.136,465.063,286.529,463.567,285.313,462.352"/>
	<path d="M318.789,474.349v-10.392c0-0.926-0.304-1.726-0.912-2.408c-0.607-0.679-1.484-1.021-2.628-1.021
		c-2.355,0-3.536,1.145-3.536,3.43v10.392h-1.496v-10.392c0-1.023-0.34-1.836-1.021-2.444c-0.702-0.657-1.543-0.985-2.515-0.985
		c-0.997,0-1.836,0.317-2.516,0.948c-0.683,0.608-1.022,1.436-1.022,2.481v10.392h-1.495v-15.063h1.495v1.496
		c0.731-1.143,1.91-1.713,3.538-1.713c1.942,0,3.378,0.79,4.304,2.37c0.872-1.58,2.295-2.37,4.265-2.37
		c1.509,0,2.725,0.424,3.648,1.275c0.924,0.876,1.384,2.081,1.384,3.612v10.392H318.789z"/>
	<path d="M334.69,473.037c-0.996,1.068-2.396,1.604-4.193,1.604c-1.774,0-3.148-0.522-4.122-1.569
		c-0.976-1.044-1.458-2.504-1.458-4.376v-9.408h1.496v9.408c0,1.436,0.314,2.541,0.946,3.317c0.655,0.778,1.702,1.168,3.138,1.168
		c2.794,0,4.193-1.493,4.193-4.485v-9.408h1.459v9.408C336.149,470.546,335.661,471.991,334.69,473.037"/>
	<path d="M348.147,473.401c-0.975,0.827-2.142,1.24-3.503,1.24c-2.334,0-4.084-1.059-5.252-3.175l1.276-0.767
		c0.413,0.757,0.915,1.339,1.498,1.752c0.605,0.462,1.433,0.693,2.478,0.693c2.285,0,3.43-0.971,3.43-2.918
		c0-0.85-0.401-1.591-1.206-2.225c-0.242-0.144-0.587-0.309-1.037-0.492c-0.452-0.181-1.003-0.395-1.661-0.636
		c-1.215-0.438-2.089-0.877-2.623-1.313c-0.777-0.631-1.168-1.546-1.168-2.736c0-1.02,0.391-1.896,1.168-2.626
		c0.751-0.754,1.735-1.13,2.953-1.13c1.678,0,3.101,0.583,4.268,1.752l-1.095,0.947c-0.827-0.827-1.884-1.241-3.173-1.241
		c-1.752,0-2.625,0.767-2.625,2.298c0,0.683,0.267,1.24,0.802,1.678c0.438,0.34,1.13,0.67,2.079,0.984
		c0.823,0.293,1.506,0.568,2.04,0.82c0.534,0.255,0.938,0.479,1.205,0.676c1.047,0.803,1.568,1.883,1.568,3.244
		C349.569,471.541,349.094,472.599,348.147,473.401"/>
	<path d="M353.833,456.59c-0.269,0-0.545-0.109-0.838-0.328c-0.219-0.219-0.341-0.512-0.364-0.876c0-0.657,0.399-1.059,1.202-1.203
		c0.607,0,1.009,0.402,1.205,1.203C355.038,456.188,354.635,456.59,353.833,456.59 M353.066,459.288h1.497v15.063h-1.497V459.288z"
		/>
	<path d="M366.634,474.642c-2.238,0-4.097-0.743-5.579-2.225c-1.483-1.482-2.225-3.344-2.225-5.579c0-2.237,0.741-4.099,2.225-5.579
		c1.482-1.485,3.341-2.228,5.579-2.228c1.919,0,3.45,0.441,4.596,1.314v1.788l-0.949-0.621l-1.023-0.549
		c-0.923-0.314-1.797-0.472-2.623-0.472c-1.872,0-3.391,0.583-4.559,1.751c-1.19,1.191-1.788,2.723-1.788,4.595
		c0,1.844,0.598,3.367,1.788,4.558c1.19,1.191,2.71,1.786,4.559,1.786c1.752,0,3.28-0.583,4.596-1.749v1.86
		C369.869,474.193,368.334,474.642,366.634,474.642"/>
	<path d="M385.888,474.351v-2.59c-1.58,1.895-3.586,2.844-6.018,2.844c-2.188,0-4.021-0.741-5.505-2.225
		c-1.51-1.506-2.264-3.355-2.264-5.544c0-2.189,0.741-4.023,2.225-5.507c1.507-1.506,3.356-2.26,5.544-2.26
		c2.409,0,4.411,0.95,6.018,2.845v-2.626h1.496v15.063H385.888z M384.319,462.387c-1.24-1.239-2.724-1.859-4.449-1.859
		c-1.75,0-3.233,0.609-4.449,1.823c-1.239,1.241-1.858,2.737-1.858,4.485c0,1.728,0.619,3.21,1.858,4.449
		c1.238,1.24,2.722,1.86,4.449,1.86c1.75,0,3.233-0.605,4.449-1.823c1.238-1.238,1.861-2.734,1.861-4.486
		C386.181,465.11,385.558,463.627,384.319,462.387"/>
	<rect x="392.234" y="447.361" width="1.456" height="26.987"/>
	<path d="M415.535,473.401c-0.972,0.827-2.14,1.24-3.501,1.24c-2.333,0-4.085-1.059-5.251-3.175l1.276-0.767
		c0.411,0.757,0.913,1.339,1.496,1.752c0.606,0.462,1.433,0.693,2.479,0.693c2.285,0,3.43-0.971,3.43-2.918
		c0-0.85-0.403-1.591-1.205-2.225c-0.244-0.144-0.588-0.309-1.039-0.492c-0.449-0.181-1.004-0.395-1.659-0.636
		c-1.217-0.438-2.089-0.877-2.626-1.313c-0.777-0.631-1.168-1.546-1.168-2.736c0-1.02,0.391-1.896,1.168-2.626
		c0.754-0.754,1.738-1.13,2.954-1.13c1.679,0,3.101,0.583,4.267,1.752l-1.095,0.947c-0.826-0.827-1.883-1.241-3.172-1.241
		c-1.749,0-2.624,0.767-2.624,2.298c0,0.683,0.267,1.24,0.803,1.678c0.436,0.34,1.13,0.67,2.077,0.984
		c0.823,0.293,1.509,0.568,2.042,0.82c0.533,0.255,0.936,0.479,1.204,0.676c1.045,0.803,1.567,1.883,1.567,3.244
		C416.958,471.541,416.485,472.599,415.535,473.401"/>
	<path d="M429.794,473.037c-0.995,1.068-2.395,1.604-4.192,1.604c-1.775,0-3.148-0.522-4.121-1.569
		c-0.974-1.044-1.459-2.504-1.459-4.376v-9.408h1.496v9.408c0,1.436,0.315,2.541,0.948,3.317c0.654,0.778,1.7,1.168,3.136,1.168
		c2.793,0,4.192-1.493,4.192-4.485v-9.408h1.457v9.408C431.251,470.546,430.767,471.991,429.794,473.037"/>
	<path d="M442.959,461.511c-0.391-0.288-0.802-0.521-1.24-0.689c-0.438-0.172-0.9-0.258-1.384-0.258
		c-0.417,0-0.804,0.128-1.168,0.384c-0.366,0.256-0.682,0.573-0.949,0.947c-0.267,0.378-0.479,0.797-0.638,1.26
		c-0.158,0.46-0.237,0.887-0.237,1.275v9.917h-1.495v-15.059h1.495v2.041c0.317-0.558,0.729-1.069,1.241-1.531
		c0.507-0.462,1.066-0.693,1.677-0.693c0.752,0,1.374,0.088,1.857,0.255c0.489,0.172,1.033,0.476,1.642,0.912L442.959,461.511z"/>
	<polygon fill="#010202" points="132.711,312.587 151.952,312.587 151.952,421.255 213.769,421.255 213.769,439.425 
		132.711,439.425 	"/>
	<polygon fill="#010202" points="231.758,312.587 249.929,312.587 286.271,395.247 321.9,312.587 340.071,312.587 340.071,439.425 
		320.832,439.425 320.832,360.329 320.475,360.329 293.931,421.255 277.899,421.255 251.357,360.329 251,360.329 251,439.425 
		231.758,439.425 	"/>
	<path fill="#010202" d="M368.389,408.606c9.618,7.66,22.446,12.648,35.985,12.648c15.677,0,25.119-7.125,25.119-17.638
		c0-8.906-5.168-15.674-16.569-17.101c-5.702-0.713-10.154-1.426-16.745-2.315c-21.911-3.029-33.669-17.28-33.669-35.629
		c0-21.733,15.142-37.054,41.33-37.054c15.678,0,29.573,5.523,41.151,13.184l-10.688,15.854c-9.264-5.88-20.133-9.8-31.355-9.8
		c-11.758,0-21.198,6.059-21.198,18.171c0,7.126,5.164,14.252,17.993,16.211c3.382,0.537,8.194,1.249,14.249,1.96
		c23.694,2.85,34.74,19.241,34.74,36.519c0,23.338-17.281,36.878-44.535,36.878c-18.707,0-35.096-5.7-48.457-17.459L368.389,408.606
		z"/>
	<path fill="none" stroke="#010202" stroke-width="4.966" stroke-miterlimit="10" d="M437.888,391.604
		c42.352-14.679,49.097-68.979,37.854-95.672c-15.433-36.626-46.909-50.856-83.679-45.785
		c-19.631,2.709-41.398,26.859-57.694,38.621c-20.431,14.747-26.26,12.237-53.507,3.49c-39.383-12.642-49.563-29.262-90.289,22.197
		h-57.866"/>
	
		<line fill="none" stroke="#FFFFFF" stroke-width="1.276" stroke-miterlimit="10" x1="132.711" y1="327.063" x2="444.991" y2="327.063"/>
	
		<line fill="none" stroke="#FFFFFF" stroke-width="1.276" stroke-miterlimit="10" x1="132.711" y1="331.405" x2="444.991" y2="331.405"/>
	
		<line fill="none" stroke="#FFFFFF" stroke-width="1.276" stroke-miterlimit="10" x1="132.711" y1="335.747" x2="444.991" y2="335.747"/>
	
		<line fill="none" stroke="#FFFFFF" stroke-width="1.276" stroke-miterlimit="10" x1="132.711" y1="340.088" x2="444.991" y2="340.088"/>
	
		<line fill="none" stroke="#FFFFFF" stroke-width="1.276" stroke-miterlimit="10" x1="132.711" y1="344.43" x2="444.991" y2="344.43"/>
	
		<line fill="none" stroke="#FFFFFF" stroke-width="1.276" stroke-miterlimit="10" x1="132.711" y1="348.771" x2="444.991" y2="348.771"/>
</g>
</svg>
