<?xml version="1.0" encoding="utf-8"?>
<!-- Generator: Adobe Illustrator 16.0.0, SVG Export Plug-In . SVG Version: 6.00 Build 0)  -->
<!DOCTYPE svg PUBLIC "-//W3C//DTD SVG 1.1//EN" "http://www.w3.org/Graphics/SVG/1.1/DTD/svg11.dtd">
<svg version="1.1" id="Capa_1" xmlns="http://www.w3.org/2000/svg" xmlns:xlink="http://www.w3.org/1999/xlink" x="0px" y="0px"
	 width="792px" height="612px" viewBox="0 0 792 612" enable-background="new 0 0 792 612" xml:space="preserve">
<g>
	<path fill-rule="evenodd" clip-rule="evenodd" fill="#FFFFFF" d="M395.977,603.322c-168.528-0.659-298.396-137.896-297.25-299.42
		C99.882,141.19,232.798,8.075,397.195,8.679C560.428,9.28,693.99,142.51,693.277,307.419
		C692.58,467.767,563.064,602.703,395.977,603.322z M104.221,306.072c0,160.828,130.796,291.611,291.767,291.605
		c159.623-0.006,291.35-128.575,291.711-290.99c0.368-164.853-133.735-292.35-291.393-292.485
		C237.775,14.069,104.563,142.214,104.221,306.072z"/>
	<path fill-rule="evenodd" clip-rule="evenodd" fill="#FFFFFF" d="M192.803,230.288c-0.248,3.244-0.45,5.853-0.677,8.828
		c-8.181,0-16.14,0-24.494,0c0-6.435,0-12.871,0-20.03c1.92-0.077,3.943-0.23,5.963-0.23c20.549-0.019,41.097-0.122,61.641,0.083
		c4.083,0.04,6.697-1.304,9.182-4.43c7.776-9.78,16.144-19.037,25.819-27.023c1.479-1.222,3.005-2.39,4.524-3.559
		c14.775-11.378,31.074-14.409,48.849-8.686c6.749,2.174,13.333,4.85,20.063,7.089c15.088,5.019,30.205,9.964,45.347,14.828
		c11.163,3.584,21.753,1.907,31.282-4.704c8.659-6.006,17.019-12.461,25.314-18.968c10.417-8.173,20.417-16.891,31.006-24.831
		c9.732-7.294,20.388-13.106,32.738-14.704c30.66-3.971,59.619,0.246,84.204,20.403c22.626,18.548,36.002,42.5,38.362,72.117
		c1.507,18.893-1.182,37.133-8.237,54.688c-8.076,20.104-21.185,35.898-40.794,46.305c0.156,1.493,0.226,2.986,0.482,4.444
		c5.001,28.576-8.403,50.248-36.473,56.569c-28.713,6.469-55.658,1.499-79.772-16.105c-1.683-1.228-3.212-2.666-5.215-4.344
		c5.47-6.27,10.724-12.282,16.165-18.52c1.349,0.76,2.535,1.29,3.577,2.029c12.046,8.552,25.513,13.164,40.173,14.242
		c8.73,0.642,17.292-0.389,25.208-4.432c10.764-5.498,15.04-16.648,10.658-27.781c-3.303-8.401-10.199-12.162-18.62-13.513
		c-8.144-1.309-16.334-2.324-24.501-3.482c-7.474-1.058-14.645-3.14-21.197-6.938c-14.252-8.258-21.571-20.725-22.457-37.584
		c8.218,0,16.186,0,24.331,0c0.088,0.09,0.513,0.313,0.589,0.619c2.801,11.441,11.088,16.529,21.804,18.536
		c6.782,1.268,13.631,2.261,20.487,3.046c16.242,1.857,29.795,8.362,39.431,22.493c1.456-0.644,2.869-1.101,4.113-1.844
		c10.954-6.559,19.586-15.476,25.739-26.598c13.503-24.405,17.193-50.373,10.329-77.37c-9.31-36.625-40.919-62.834-78.426-66.317
		c-9.066-0.842-18.022-0.487-26.999,0.445c-7.384,0.766-14.046,3.703-20.416,7.372c-11.042,6.36-20.72,14.543-30.428,22.689
		c-6.91,5.799-13.701,11.765-20.842,17.269c-5.304,4.088-10.956,7.773-16.685,11.256c-11.219,6.827-23.407,8.777-35.981,4.987
		c-16.687-5.028-33.18-10.708-49.757-16.106c-7.833-2.548-15.582-5.398-23.517-7.557c-9.544-2.601-18.631-0.755-27.112,4.242
		c-7.85,4.628-14.646,10.57-20.769,17.222c-6.106,6.636-11.981,13.497-17.673,20.493c-2.035,2.5-4.119,3.452-7.278,3.42
		c-14.208-0.139-28.42-0.062-42.63-0.062C197.175,230.288,195.114,230.288,192.803,230.288z"/>
	<path fill-rule="evenodd" clip-rule="evenodd" fill="#FFFFFF" d="M440.597,271.947c0,39.166,0,77.891,0,117.416
		c-7.997,0.537-15.945,0.146-24.726,0.211c-0.056-7.155-0.13-13.976-0.158-20.794c-0.026-6.721-0.006-13.439-0.006-20.159
		c0-6.911,0-13.821,0-20.734c0-6.718,0-13.438,0-20.156c0-6.821,0-13.639,0-20.459c-0.473-0.077-0.947-0.154-1.421-0.231
		c-11.385,26.075-22.771,52.149-34.228,78.394c-7.077,0-13.925,0-21.175,0c-11.449-26.224-22.912-52.473-34.373-78.725
		c-0.432,0.085-0.861,0.171-1.292,0.256c0,33.978,0,67.957,0,102.289c-8.66,0-16.615,0-24.96,0c0-39.113,0-77.983,0-117.237
		c15.08,0,29.967,0,45.446,0c8.427,19.107,17.002,38.545,26.106,59.186c9.353-20.116,17.146-39.759,25.944-59.253
		C410.474,271.947,425.168,271.947,440.597,271.947z"/>
	<path fill-rule="evenodd" clip-rule="evenodd" fill="#FFFFFF" d="M273.788,389.347c-35.75,0-70.799,0-106.198,0
		c0-39.142,0-78.014,0-117.304c7.975,0,15.938,0,24.712,0c0.042,7.688,0.101,15.478,0.122,23.268
		c0.021,7.869,0.004,15.738,0.004,23.607c0,7.674,0,15.352,0,23.027c0,7.805,0,15.607,0,24.019c27.516,0,54.28,0,81.36,0
		C273.788,373.982,273.788,381.37,273.788,389.347z"/>
	<path fill-rule="evenodd" clip-rule="evenodd" fill="#FFFFFF" d="M578.806,238.52c-4.559,1.186-90.262,1.467-97.879,0.268
		c2.502-2.417,4.472-4.642,6.758-6.475c8.656-6.953,18.851-10.148,29.692-11.113c21.818-1.943,41.673,4.043,59.994,15.668
		C577.914,237.212,578.255,237.873,578.806,238.52z"/>
	<path fill-rule="evenodd" clip-rule="evenodd" fill="#FFFFFF" d="M298.225,239.083c0-5.413,0-10.676,0-16.33
		c4.147-1.151,8.329-0.443,12.432-0.523c3.598-0.069,7.976-0.958,10.585,0.723c2.604,1.681,3.494,6.076,5.031,9.333
		c0.956,2.03,1.712,4.151,2.789,6.798C318.501,239.083,308.542,239.083,298.225,239.083z"/>
	<path fill-rule="evenodd" clip-rule="evenodd" fill="#FFFFFF" d="M410.089,238.712c2.104-4.967,4.092-9.871,6.304-14.671
		c0.385-0.83,1.705-1.719,2.61-1.737c7.021-0.143,14.05-0.077,21.462-0.077c0,5.834,0,11.102,0,16.394
		C436.396,239.757,416.182,239.908,410.089,238.712z"/>
	<path fill-rule="evenodd" clip-rule="evenodd" fill="#FFFFFF" d="M477.159,245.267c1.598-3.07,3.735-2.286,5.456-2.302
		c7.853-0.083,15.707-0.037,23.562-0.037c20.88,0,41.761,0,62.643,0c2.063,0,4.128,0,6.195,0c0.082,0.35,0.17,0.696,0.255,1.046
		c-0.812,0.424-1.587,1.081-2.445,1.218c-1.308,0.213-2.673,0.076-4.013,0.076c-28.353,0-56.702,0-85.054,0
		C481.744,245.267,479.73,245.267,477.159,245.267z"/>
	<path fill-rule="evenodd" clip-rule="evenodd" fill="#FFFFFF" d="M342.206,266.968c-5.795,1.686-39.572,1.64-44.869-0.057
		c5.6-1.802,10.462-0.831,15.191-1.005c4.787-0.176,9.588-0.181,14.374,0C331.636,266.087,336.511,265.089,342.206,266.968z"/>
	<path fill-rule="evenodd" clip-rule="evenodd" fill="#FFFFFF" d="M440.276,267.87c-14.05,0-28.102,0-42.153,0
		c-0.072-0.26-0.146-0.521-0.223-0.78c0.724-0.392,1.44-1.121,2.164-1.123c12.854-0.063,25.707-0.048,38.561-0.005
		c0.607,0.002,1.212,0.411,1.819,0.628C440.389,267.017,440.332,267.443,440.276,267.87z"/>
	<path fill-rule="evenodd" clip-rule="evenodd" fill="#FFFFFF" d="M297.437,261.652c5.009-2.011,36.744-2.042,41.147-0.427
		C335.471,262.76,305.715,263.208,297.437,261.652z"/>
	<path fill-rule="evenodd" clip-rule="evenodd" fill="#FFFFFF" d="M399.778,261.858c1.138-0.909,1.54-1.518,1.953-1.522
		c12.04-0.107,24.082-0.166,36.122-0.185c0.832-0.001,1.663,0.372,2.917,0.671C437.288,262.766,410.131,263.352,399.778,261.858z"/>
	<path fill-rule="evenodd" clip-rule="evenodd" fill="#FFFFFF" d="M297.409,255.632c4.486-1.224,29.246-1.836,36.491-1.121
		c0.828,0.081,1.617,0.558,3.032,1.073C331.695,257.029,303.231,257.092,297.409,255.632z"/>
	<path fill-rule="evenodd" clip-rule="evenodd" fill="#FFFFFF" d="M440.932,255.484c-4.587,1.444-30.008,1.797-38.425,0.685
		c1.018-0.718,1.683-1.592,2.354-1.597c11.244-0.08,22.487-0.061,33.731-0.014C439.182,254.561,439.771,255.011,440.932,255.484z"/>
	<path fill-rule="evenodd" clip-rule="evenodd" fill="#FFFFFF" d="M334.53,251.019c-12.665,0.011-24.357,0.019-36.052-0.007
		c-0.213-0.528-0.424-1.053-0.637-1.58c0.525-0.202,1.048-0.577,1.571-0.58c11.063-0.018,22.125-0.007,33.187,0.068
		C332.96,248.923,333.313,249.666,334.53,251.019z"/>
	<path fill-rule="evenodd" clip-rule="evenodd" fill="#FFFFFF" d="M440.172,250.667c-11.527,0-23.055,0-34.579,0
		c-0.07-0.243-0.139-0.489-0.209-0.735c0.722-0.403,1.411-1.083,2.17-1.17C415.727,247.826,437.076,248.621,440.172,250.667z"/>
	<path fill-rule="evenodd" clip-rule="evenodd" fill="#FFFFFF" d="M298.488,244.221c3.792-1.826,28.483-1.865,32.482-0.054
		C326.959,245.696,302.803,245.736,298.488,244.221z"/>
	<path fill-rule="evenodd" clip-rule="evenodd" fill="#FFFFFF" d="M507.269,249.77c-0.785,0.39-1.532,1.012-2.36,1.138
		c-4.856,0.746-27.043,0.071-29.98-0.823C478.109,248.34,492.409,247.852,507.269,249.77z"/>
	<path fill-rule="evenodd" clip-rule="evenodd" fill="#FFFFFF" d="M407.338,244.792c4.023-2.3,27.853-2.545,33.777-0.429
		c-6.123,1.693-11.531,0.748-16.826,0.841C418.895,245.299,413.449,245.671,407.338,244.792z"/>
	<path fill-rule="evenodd" clip-rule="evenodd" fill="#FFFFFF" d="M501.561,254.615c-4.427,2.382-20.648,2.855-28.561,1.507
		c2.192-1.674,2.192-1.688,13.343-1.666C490.982,254.465,495.623,254.552,501.561,254.615z"/>
	<path fill-rule="evenodd" clip-rule="evenodd" fill="#FFFFFF" d="M498.016,260.869c-4.612,1.976-21.265,2.142-26.229,0.663
		C474.739,259.833,489.406,259.357,498.016,260.869z"/>
	<path fill-rule="evenodd" clip-rule="evenodd" fill="#FFFFFF" d="M166.596,261.458c5.122-1.695,20.537-1.782,25.342-0.474
		C189.296,262.794,174.078,263.236,166.596,261.458z"/>
	<path fill-rule="evenodd" clip-rule="evenodd" fill="#FFFFFF" d="M546.084,249.052c8.986,0,17.055,0,25.124,0
		c-3.789,3.125-8.149,1.807-12.223,1.87C554.966,250.979,550.66,252.147,546.084,249.052z"/>
	<path fill-rule="evenodd" clip-rule="evenodd" fill="#FFFFFF" d="M167.665,244.212c3.5-1.64,18.744-1.888,24.149-0.397
		C188.963,245.693,172.716,245.958,167.665,244.212z"/>
	<path fill-rule="evenodd" clip-rule="evenodd" fill="#FFFFFF" d="M470.255,267.127c5.342-1.636,20.771-1.649,25.272-0.33
		C492.658,268.579,477.123,268.953,470.255,267.127z"/>
	<path fill-rule="evenodd" clip-rule="evenodd" fill="#FFFFFF" d="M166.588,267.104c5.497-1.629,20.978-1.615,25.356-0.279
		C189.024,268.592,173.448,268.944,166.588,267.104z"/>
	<path fill-rule="evenodd" clip-rule="evenodd" fill="#FFFFFF" d="M166.631,256.005c5.017-1.944,20.507-2.052,25.188-0.571
		C188.788,256.983,175.417,257.39,166.631,256.005z"/>
	<path fill-rule="evenodd" clip-rule="evenodd" fill="#FFFFFF" d="M166.675,250.254c4.942-1.964,20.492-2.072,25.15-0.564
		C188.832,251.307,175.116,251.722,166.675,250.254z"/>
	<path fill-rule="evenodd" clip-rule="evenodd" fill="#FFFFFF" d="M558.905,254.694c2.475-0.12,3.759-0.222,5.047-0.232
		c1.097-0.006,2.192,0.097,3.484,0.159C565.12,257.305,564.401,257.355,558.905,254.694z"/>
	<g>
		<path fill="#FFFFFF" d="M165.045,424.699v-22.389h1.303v21.103h6.551v1.286H165.045z"/>
		<path fill="#FFFFFF" d="M186.293,424.699v-2.228c-1.413,1.633-3.205,2.446-5.377,2.446c-1.957,0-3.596-0.636-4.922-1.912
			c-1.346-1.298-2.02-2.885-2.02-4.769c0-1.879,0.662-3.458,1.987-4.732c1.347-1.297,2.997-1.945,4.954-1.945
			c2.15,0,3.942,0.817,5.377,2.446v-2.256h1.335v12.949H186.293z M184.892,414.414c-1.108-1.065-2.434-1.597-3.976-1.597
			c-1.565,0-2.891,0.521-3.976,1.563c-1.108,1.069-1.663,2.354-1.663,3.856c0,1.487,0.555,2.761,1.663,3.829
			c1.107,1.063,2.433,1.597,3.976,1.597c1.563,0,2.889-0.521,3.976-1.568c1.106-1.064,1.662-2.349,1.662-3.857
			C186.553,416.753,185.998,415.48,184.892,414.414z"/>
		<path fill="#FFFFFF" d="M203.042,422.975c-1.346,1.294-2.998,1.943-4.952,1.943c-2.239,0-4.074-0.868-5.507-2.604v2.385h-1.337
			v-23.204h1.337v12.667c1.411-1.733,3.247-2.603,5.507-2.603c1.955,0,3.594,0.639,4.92,1.915c1.347,1.295,2.02,2.884,2.02,4.763
			C205.03,420.121,204.368,421.698,203.042,422.975z M202.065,414.414c-1.108-1.065-2.434-1.597-3.975-1.597
			c-1.564,0-2.891,0.521-3.977,1.563c-1.108,1.069-1.662,2.354-1.662,3.856c0,1.487,0.554,2.761,1.662,3.829
			c1.109,1.063,2.434,1.597,3.977,1.597c1.563,0,2.889-0.521,3.975-1.568c1.108-1.064,1.662-2.349,1.662-3.857
			C203.727,416.753,203.173,415.48,202.065,414.414z"/>
		<path fill="#FFFFFF" d="M219.335,422.975c-1.347,1.294-2.998,1.943-4.952,1.943c-1.956,0-3.596-0.636-4.922-1.912
			c-1.346-1.298-2.02-2.885-2.02-4.769c0-1.859,0.673-3.437,2.02-4.732c1.326-1.316,2.966-1.976,4.922-1.976
			c1.933,0,3.573,0.647,4.919,1.945c1.348,1.295,2.021,2.884,2.021,4.763C221.323,420.121,220.661,421.698,219.335,422.975z
			 M218.39,414.381c-1.086-1.064-2.421-1.598-4.007-1.598c-1.522,0-2.835,0.545-3.944,1.631c-1.13,1.086-1.695,2.362-1.695,3.823
			c0,1.487,0.555,2.761,1.663,3.829c1.109,1.063,2.433,1.597,3.977,1.597c1.564,0,2.889-0.521,3.976-1.568
			c1.106-1.064,1.662-2.349,1.662-3.857C220.021,416.713,219.477,415.429,218.39,414.381z"/>
		<path fill="#FFFFFF" d="M231.033,413.661c-0.347-0.251-0.716-0.449-1.106-0.597c-0.392-0.143-0.805-0.219-1.239-0.219
			c-0.37,0-0.717,0.11-1.042,0.33c-0.327,0.221-0.61,0.489-0.848,0.813c-0.241,0.325-0.43,0.684-0.571,1.084
			c-0.141,0.397-0.211,0.764-0.211,1.097v8.529h-1.337V411.75h1.337v1.755c0.282-0.481,0.65-0.92,1.108-1.316
			c0.455-0.398,0.956-0.595,1.5-0.595c0.672,0,1.226,0.069,1.661,0.218c0.435,0.146,0.923,0.405,1.467,0.783L231.033,413.661z"/>
		<path fill="#FFFFFF" d="M245.438,424.699v-2.228c-1.412,1.633-3.205,2.446-5.377,2.446c-1.956,0-3.596-0.636-4.92-1.912
			c-1.348-1.298-2.02-2.885-2.02-4.769c0-1.879,0.661-3.458,1.988-4.732c1.346-1.297,2.997-1.945,4.953-1.945
			c2.151,0,3.944,0.817,5.377,2.446v-2.256h1.336v12.949H245.438z M244.038,414.414c-1.109-1.065-2.434-1.597-3.977-1.597
			c-1.564,0-2.89,0.521-3.975,1.563c-1.108,1.069-1.663,2.354-1.663,3.856c0,1.487,0.555,2.761,1.663,3.829
			c1.108,1.063,2.433,1.597,3.975,1.597c1.564,0,2.889-0.521,3.977-1.568c1.107-1.064,1.662-2.349,1.662-3.857
			C245.699,416.753,245.145,415.48,244.038,414.414z"/>
		<path fill="#FFFFFF" d="M252.771,413.034v11.665h-1.336v-11.665h-1.825v-1.284h1.825v-5.677h1.336v5.677h3.129v1.284H252.771z"/>
		<path fill="#FFFFFF" d="M268.218,422.975c-1.349,1.294-2.999,1.943-4.954,1.943c-1.956,0-3.596-0.636-4.921-1.912
			c-1.347-1.298-2.02-2.885-2.02-4.769c0-1.859,0.673-3.437,2.02-4.732c1.325-1.316,2.965-1.976,4.921-1.976
			c1.933,0,3.573,0.647,4.919,1.945c1.347,1.295,2.021,2.884,2.021,4.763C270.206,420.121,269.542,421.698,268.218,422.975z
			 M267.271,414.381c-1.086-1.064-2.421-1.598-4.007-1.598c-1.522,0-2.836,0.545-3.944,1.631c-1.13,1.086-1.695,2.362-1.695,3.823
			c0,1.487,0.554,2.761,1.663,3.829c1.108,1.063,2.432,1.597,3.976,1.597c1.564,0,2.889-0.521,3.975-1.568
			c1.107-1.064,1.662-2.349,1.662-3.857C268.901,416.713,268.359,415.429,267.271,414.381z"/>
		<path fill="#FFFFFF" d="M279.916,413.661c-0.348-0.251-0.716-0.449-1.107-0.597c-0.392-0.143-0.805-0.219-1.239-0.219
			c-0.369,0-0.717,0.11-1.042,0.33c-0.327,0.221-0.61,0.489-0.848,0.813c-0.239,0.325-0.43,0.684-0.571,1.084
			c-0.141,0.397-0.211,0.764-0.211,1.097v8.529h-1.338V411.75h1.338v1.755c0.281-0.481,0.651-0.92,1.108-1.316
			c0.456-0.398,0.956-0.595,1.499-0.595c0.673,0,1.226,0.069,1.662,0.218c0.434,0.146,0.923,0.405,1.465,0.783L279.916,413.661z"/>
		<path fill="#FFFFFF" d="M284.576,409.428c-0.24,0-0.49-0.095-0.75-0.283c-0.195-0.188-0.304-0.437-0.327-0.751
			c0-0.565,0.359-0.908,1.077-1.034c0.542,0,0.901,0.345,1.075,1.034C285.65,409.085,285.293,409.428,284.576,409.428z
			 M283.891,424.699V411.75h1.336v12.949H283.891z"/>
		<path fill="#FFFFFF" d="M300.542,422.975c-1.347,1.294-2.998,1.943-4.952,1.943c-1.956,0-3.596-0.636-4.922-1.912
			c-1.346-1.298-2.019-2.885-2.019-4.769c0-1.859,0.673-3.437,2.019-4.732c1.326-1.316,2.966-1.976,4.922-1.976
			c1.933,0,3.573,0.647,4.919,1.945c1.347,1.295,2.021,2.884,2.021,4.763C302.531,420.121,301.867,421.698,300.542,422.975z
			 M299.597,414.381c-1.086-1.064-2.421-1.598-4.007-1.598c-1.522,0-2.836,0.545-3.944,1.631c-1.13,1.086-1.695,2.362-1.695,3.823
			c0,1.487,0.554,2.761,1.663,3.829c1.108,1.063,2.432,1.597,3.976,1.597c1.564,0,2.889-0.521,3.975-1.568
			c1.107-1.064,1.662-2.349,1.662-3.857C301.227,416.713,300.684,415.429,299.597,414.381z"/>
		<path fill="#FFFFFF" d="M320.55,424.95c-1.999,0-3.661-0.64-4.985-1.912c-1.326-1.276-1.987-2.875-1.987-4.801
			c0-1.919,0.662-3.522,1.987-4.797c1.325-1.272,2.987-1.911,4.985-1.911c1.717,0,3.084,0.375,4.106,1.128v1.535l-0.847-0.531
			l-0.913-0.469c-0.826-0.271-1.608-0.409-2.346-0.409c-1.673,0-3.03,0.501-4.073,1.505c-1.064,1.026-1.598,2.343-1.598,3.949
			c0,1.589,0.534,2.897,1.598,3.921c1.064,1.024,2.423,1.535,4.073,1.535c1.564,0,2.934-0.501,4.106-1.505v1.6
			C323.439,424.563,322.07,424.95,320.55,424.95z"/>
		<path fill="#FFFFFF" d="M337.331,422.975c-1.345,1.294-2.998,1.943-4.953,1.943c-1.955,0-3.595-0.636-4.92-1.912
			c-1.347-1.298-2.02-2.885-2.02-4.769c0-1.859,0.673-3.437,2.02-4.732c1.325-1.316,2.966-1.976,4.92-1.976
			c1.935,0,3.574,0.647,4.921,1.945c1.349,1.295,2.022,2.884,2.022,4.763C339.321,420.121,338.656,421.698,337.331,422.975z
			 M336.387,414.381c-1.086-1.064-2.422-1.598-4.009-1.598c-1.521,0-2.834,0.545-3.943,1.631c-1.129,1.086-1.693,2.362-1.693,3.823
			c0,1.487,0.554,2.761,1.662,3.829c1.109,1.063,2.434,1.597,3.975,1.597c1.564,0,2.889-0.521,3.976-1.568
			c1.109-1.064,1.662-2.349,1.662-3.857C338.015,416.713,337.472,415.429,336.387,414.381z"/>
		<path fill="#FFFFFF" d="M343.035,424.699v-23.204h1.302v23.204H343.035z"/>
		<path fill="#FFFFFF" d="M360.24,424.699v-2.228c-1.415,1.633-3.206,2.446-5.378,2.446c-1.955,0-3.596-0.636-4.919-1.912
			c-1.348-1.298-2.021-2.885-2.021-4.769c0-1.879,0.662-3.458,1.987-4.732c1.348-1.297,2.999-1.945,4.954-1.945
			c2.152,0,3.943,0.817,5.378,2.446v-2.256h1.336v12.949H360.24z M358.837,414.414c-1.106-1.065-2.433-1.597-3.975-1.597
			c-1.564,0-2.889,0.521-3.977,1.563c-1.107,1.069-1.662,2.354-1.662,3.856c0,1.487,0.555,2.761,1.662,3.829
			c1.11,1.063,2.435,1.597,3.977,1.597c1.563,0,2.889-0.521,3.975-1.568c1.109-1.064,1.662-2.349,1.662-3.857
			C360.499,416.753,359.946,415.48,358.837,414.414z"/>
		<path fill="#FFFFFF" d="M376.988,422.975c-1.347,1.294-2.998,1.943-4.953,1.943c-2.237,0-4.074-0.868-5.508-2.604v2.385h-1.337
			v-23.204h1.337v12.667c1.411-1.733,3.248-2.603,5.508-2.603c1.955,0,3.596,0.639,4.921,1.915c1.347,1.295,2.021,2.884,2.021,4.763
			C378.978,420.121,378.313,421.698,376.988,422.975z M376.01,414.414c-1.106-1.065-2.431-1.597-3.975-1.597
			c-1.564,0-2.889,0.521-3.977,1.563c-1.107,1.069-1.66,2.354-1.66,3.856c0,1.487,0.553,2.761,1.66,3.829
			c1.108,1.063,2.433,1.597,3.977,1.597c1.564,0,2.889-0.521,3.975-1.568c1.107-1.064,1.662-2.349,1.662-3.857
			C377.672,416.753,377.117,415.48,376.01,414.414z"/>
		<path fill="#FFFFFF" d="M393.281,422.975c-1.345,1.294-2.998,1.943-4.952,1.943c-1.955,0-3.596-0.636-4.92-1.912
			c-1.347-1.298-2.021-2.885-2.021-4.769c0-1.859,0.673-3.437,2.021-4.732c1.324-1.316,2.965-1.976,4.92-1.976
			c1.935,0,3.573,0.647,4.921,1.945c1.349,1.295,2.021,2.884,2.021,4.763C395.271,420.121,394.607,421.698,393.281,422.975z
			 M392.338,414.381c-1.086-1.064-2.422-1.598-4.009-1.598c-1.521,0-2.834,0.545-3.941,1.631c-1.13,1.086-1.696,2.362-1.696,3.823
			c0,1.487,0.554,2.761,1.662,3.829c1.109,1.063,2.434,1.597,3.976,1.597c1.564,0,2.889-0.521,3.976-1.568
			c1.109-1.064,1.661-2.349,1.661-3.857C393.966,416.713,393.423,415.429,392.338,414.381z"/>
		<path fill="#FFFFFF" d="M404.981,413.661c-0.348-0.251-0.718-0.449-1.109-0.597c-0.391-0.143-0.802-0.219-1.236-0.219
			c-0.371,0-0.718,0.11-1.043,0.33c-0.328,0.221-0.608,0.489-0.847,0.813c-0.241,0.325-0.432,0.684-0.571,1.084
			c-0.142,0.397-0.212,0.764-0.212,1.097v8.529h-1.337V411.75h1.337v1.755c0.282-0.481,0.652-0.92,1.107-1.316
			c0.457-0.398,0.956-0.595,1.501-0.595c0.671,0,1.226,0.069,1.661,0.218c0.434,0.146,0.922,0.405,1.465,0.783L404.981,413.661z"/>
		<path fill="#FFFFFF" d="M419.386,424.699v-2.228c-1.415,1.633-3.206,2.446-5.378,2.446c-1.954,0-3.597-0.636-4.919-1.912
			c-1.349-1.298-2.02-2.885-2.02-4.769c0-1.879,0.66-3.458,1.985-4.732c1.349-1.297,2.999-1.945,4.953-1.945
			c2.152,0,3.943,0.817,5.378,2.446v-2.256h1.338v12.949H419.386z M417.983,414.414c-1.106-1.065-2.432-1.597-3.976-1.597
			c-1.564,0-2.887,0.521-3.976,1.563c-1.106,1.069-1.661,2.354-1.661,3.856c0,1.487,0.555,2.761,1.661,3.829
			c1.11,1.063,2.434,1.597,3.976,1.597c1.565,0,2.891-0.521,3.976-1.568c1.109-1.064,1.662-2.349,1.662-3.857
			C419.646,416.753,419.093,415.48,417.983,414.414z"/>
		<path fill="#FFFFFF" d="M426.717,413.034v11.665h-1.335v-11.665h-1.827v-1.284h1.827v-5.677h1.335v5.677h3.128v1.284H426.717z"/>
		<path fill="#FFFFFF" d="M433.757,409.428c-0.24,0-0.487-0.095-0.749-0.283c-0.195-0.188-0.304-0.437-0.327-0.751
			c0-0.565,0.359-0.908,1.076-1.034c0.54,0,0.901,0.345,1.076,1.034C434.833,409.085,434.475,409.428,433.757,409.428z
			 M433.074,424.699V411.75h1.334v12.949H433.074z"/>
		<path fill="#FFFFFF" d="M443.926,425.263l-6.356-13.513h1.435l4.888,10.316l4.922-10.316h1.496L443.926,425.263z"/>
		<path fill="#FFFFFF" d="M463.899,422.975c-1.347,1.294-3,1.943-4.953,1.943c-1.956,0-3.597-0.636-4.92-1.912
			c-1.347-1.298-2.021-2.885-2.021-4.769c0-1.859,0.674-3.437,2.021-4.732c1.323-1.316,2.964-1.976,4.92-1.976
			c1.934,0,3.572,0.647,4.921,1.945c1.349,1.295,2.021,2.884,2.021,4.763C465.888,420.121,465.226,421.698,463.899,422.975z
			 M462.955,414.381c-1.086-1.064-2.422-1.598-4.009-1.598c-1.521,0-2.833,0.545-3.941,1.631c-1.131,1.086-1.697,2.362-1.697,3.823
			c0,1.487,0.556,2.761,1.663,3.829c1.11,1.063,2.434,1.597,3.976,1.597c1.563,0,2.89-0.521,3.976-1.568
			c1.109-1.064,1.66-2.349,1.66-3.857C464.582,416.713,464.039,415.429,462.955,414.381z"/>
		<path fill="#FFFFFF" d="M492.87,424.699v-8.938c0-0.791-0.272-1.482-0.813-2.067c-0.544-0.585-1.325-0.876-2.346-0.876
			c-2.11,0-3.163,0.979-3.163,2.943v8.938h-1.336v-8.938c0-0.875-0.304-1.577-0.911-2.1c-0.631-0.563-1.381-0.844-2.248-0.844
			c-0.892,0-1.642,0.269-2.25,0.812c-0.608,0.523-0.913,1.232-0.913,2.132v8.938h-1.334V411.75h1.334v1.284
			c0.654-0.982,1.705-1.475,3.163-1.475c1.737,0,3.02,0.681,3.843,2.037c0.783-1.356,2.053-2.037,3.815-2.037
			c1.345,0,2.433,0.366,3.258,1.098c0.823,0.753,1.238,1.787,1.238,3.104v8.938H492.87z"/>
		<path fill="#FFFFFF" d="M507.08,423.569c-0.893,0.922-2.142,1.381-3.749,1.381c-1.587,0-2.814-0.451-3.683-1.349
			c-0.869-0.9-1.304-2.154-1.304-3.763v-8.089h1.336v8.089c0,1.231,0.281,2.184,0.848,2.851c0.587,0.672,1.521,1.004,2.803,1.004
			c2.498,0,3.749-1.284,3.749-3.854v-8.089h1.303v8.089C508.383,421.426,507.947,422.67,507.08,423.569z"/>
		<path fill="#FFFFFF" d="M519.104,423.882c-0.87,0.711-1.915,1.068-3.129,1.068c-2.084,0-3.65-0.91-4.692-2.729l1.142-0.659
			c0.368,0.649,0.813,1.148,1.335,1.507c0.543,0.396,1.28,0.595,2.216,0.595c2.042,0,3.065-0.835,3.065-2.508
			c0-0.731-0.361-1.369-1.077-1.912c-0.217-0.126-0.525-0.267-0.931-0.425c-0.401-0.158-0.894-0.341-1.48-0.549
			c-1.087-0.377-1.867-0.753-2.347-1.128c-0.695-0.543-1.041-1.328-1.041-2.351c0-0.88,0.346-1.633,1.041-2.258
			c0.674-0.647,1.554-0.974,2.641-0.974c1.497,0,2.768,0.503,3.812,1.505l-0.979,0.815c-0.738-0.71-1.685-1.063-2.833-1.063
			c-1.564,0-2.348,0.657-2.348,1.974c0,0.587,0.24,1.064,0.717,1.44c0.392,0.295,1.009,0.577,1.857,0.846
			c0.738,0.253,1.349,0.489,1.826,0.707c0.477,0.217,0.835,0.413,1.073,0.581c0.936,0.689,1.401,1.621,1.401,2.79
			C520.373,422.283,519.95,423.192,519.104,423.882z"/>
		<path fill="#FFFFFF" d="M524.186,409.428c-0.24,0-0.486-0.095-0.748-0.283c-0.195-0.188-0.305-0.437-0.328-0.751
			c0-0.565,0.359-0.908,1.076-1.034c0.543,0,0.901,0.345,1.077,1.034C525.263,409.085,524.904,409.428,524.186,409.428z
			 M523.502,424.699V411.75h1.336v12.949H523.502z"/>
		<path fill="#FFFFFF" d="M535.627,424.95c-2.001,0-3.663-0.64-4.988-1.912c-1.326-1.276-1.987-2.875-1.987-4.801
			c0-1.919,0.661-3.522,1.987-4.797c1.325-1.272,2.987-1.911,4.988-1.911c1.716,0,3.082,0.375,4.104,1.128v1.535l-0.847-0.531
			l-0.914-0.469c-0.823-0.271-1.608-0.409-2.344-0.409c-1.674,0-3.034,0.501-4.076,1.505c-1.064,1.026-1.596,2.343-1.596,3.949
			c0,1.589,0.531,2.897,1.596,3.921c1.065,1.024,2.423,1.535,4.076,1.535c1.563,0,2.93-0.501,4.104-1.505v1.6
			C538.514,424.563,537.147,424.95,535.627,424.95z"/>
		<path fill="#FFFFFF" d="M552.83,424.699v-2.228c-1.415,1.633-3.203,2.446-5.378,2.446c-1.955,0-3.597-0.636-4.917-1.912
			c-1.349-1.298-2.023-2.885-2.023-4.769c0-1.879,0.663-3.458,1.989-4.732c1.346-1.297,2.996-1.945,4.951-1.945
			c2.152,0,3.943,0.817,5.378,2.446v-2.256h1.338v12.949H552.83z M551.43,414.414c-1.108-1.065-2.434-1.597-3.978-1.597
			c-1.564,0-2.888,0.521-3.976,1.563c-1.107,1.069-1.662,2.354-1.662,3.856c0,1.487,0.555,2.761,1.662,3.829
			c1.11,1.063,2.434,1.597,3.976,1.597c1.563,0,2.89-0.521,3.978-1.568c1.107-1.064,1.659-2.349,1.659-3.857
			C553.089,416.753,552.537,415.48,551.43,414.414z"/>
		<path fill="#FFFFFF" d="M558.498,424.699v-23.204h1.305v23.204H558.498z"/>
		<path fill="#FFFFFF" d="M579.322,423.882c-0.867,0.711-1.911,1.068-3.129,1.068c-2.084,0-3.65-0.91-4.69-2.729l1.14-0.659
			c0.368,0.649,0.815,1.148,1.335,1.507c0.542,0.396,1.283,0.595,2.216,0.595c2.041,0,3.065-0.835,3.065-2.508
			c0-0.731-0.359-1.369-1.076-1.912c-0.219-0.126-0.527-0.267-0.929-0.425c-0.402-0.158-0.896-0.341-1.481-0.549
			c-1.089-0.377-1.87-0.753-2.347-1.128c-0.697-0.543-1.044-1.328-1.044-2.351c0-0.88,0.347-1.633,1.044-2.258
			c0.672-0.647,1.553-0.974,2.639-0.974c1.498,0,2.77,0.503,3.812,1.505l-0.977,0.815c-0.74-0.71-1.685-1.063-2.835-1.063
			c-1.564,0-2.345,0.657-2.345,1.974c0,0.587,0.237,1.064,0.714,1.44c0.393,0.295,1.011,0.577,1.857,0.846
			c0.74,0.253,1.349,0.489,1.825,0.707c0.479,0.217,0.838,0.413,1.076,0.581c0.934,0.689,1.4,1.621,1.4,2.79
			C580.593,422.283,580.169,423.192,579.322,423.882z"/>
		<path fill="#FFFFFF" d="M592.064,423.569c-0.89,0.922-2.141,1.381-3.747,1.381c-1.587,0-2.815-0.451-3.683-1.349
			c-0.87-0.9-1.306-2.154-1.306-3.763v-8.089h1.337v8.089c0,1.231,0.282,2.184,0.847,2.851c0.588,0.672,1.522,1.004,2.805,1.004
			c2.496,0,3.747-1.284,3.747-3.854v-8.089h1.304v8.089C593.368,421.426,592.935,422.67,592.064,423.569z"/>
		<path fill="#FFFFFF" d="M603.829,413.661c-0.35-0.251-0.719-0.449-1.109-0.597c-0.391-0.143-0.802-0.219-1.237-0.219
			c-0.37,0-0.718,0.11-1.042,0.33c-0.328,0.221-0.611,0.489-0.849,0.813c-0.238,0.325-0.43,0.684-0.571,1.084
			c-0.14,0.397-0.21,0.764-0.21,1.097v8.529h-1.338V411.75h1.338v1.755c0.281-0.481,0.65-0.92,1.105-1.316
			c0.458-0.398,0.958-0.595,1.501-0.595c0.673,0,1.228,0.069,1.661,0.218c0.434,0.146,0.924,0.405,1.467,0.783L603.829,413.661z"/>
	</g>
</g>
</svg>
