<?xml version="1.0" encoding="utf-8"?>
<!-- Generator: Adobe Illustrator 16.0.0, SVG Export Plug-In . SVG Version: 6.00 Build 0)  -->
<!DOCTYPE svg PUBLIC "-//W3C//DTD SVG 1.1//EN" "http://www.w3.org/Graphics/SVG/1.1/DTD/svg11.dtd">
<svg version="1.1" id="Capa_1" xmlns="http://www.w3.org/2000/svg" xmlns:xlink="http://www.w3.org/1999/xlink" x="0px" y="0px"
	 width="792px" height="612px" viewBox="0 0 792 612" enable-background="new 0 0 792 612" xml:space="preserve">
<g>
	<polygon fill="#FFFFFE" points="577.001,255.848 560.086,255.848 559.647,258.168 577.001,258.168 	"/>
	<polygon fill="#FFFFFE" points="498.855,261.51 474.702,261.51 474.072,263.831 498.855,263.831 	"/>
	<polygon fill="#FFFFFE" points="442.82,249.882 407.693,249.882 406.777,252.203 442.82,252.203 	"/>
	<polygon fill="#FFFFFE" points="300.883,250.233 336.011,250.233 336.926,252.553 300.883,252.553 	"/>
	<polygon fill="#FFFFFE" points="300.883,244.427 333.461,244.427 334.311,246.748 300.883,246.748 	"/>
	<path fill-rule="evenodd" clip-rule="evenodd" fill="#FFFFFF" d="M398.426,604.025c-168.167-0.656-297.759-137.603-296.615-298.78
		C102.964,142.88,235.596,10.049,399.643,10.652c162.884,0.599,296.161,133.544,295.449,298.102
		C694.396,468.76,565.158,603.407,398.426,604.025z M107.294,307.41c0,160.484,130.518,290.99,291.144,290.982
		c159.281-0.006,290.729-128.299,291.088-290.37c0.368-164.5-133.449-291.723-290.77-291.859
		C240.563,16.03,107.635,143.902,107.294,307.41z"/>
	<path fill-rule="evenodd" clip-rule="evenodd" fill="#FFFFFF" d="M195.686,231.787c-0.248,3.238-0.449,5.84-0.675,8.809
		c-8.164,0-16.105,0-24.441,0c0-6.42,0-12.844,0-19.987c1.916-0.078,3.934-0.229,5.95-0.229c20.504-0.019,41.01-0.122,61.509,0.082
		c4.075,0.04,6.684-1.3,9.163-4.421c7.758-9.758,16.109-18.995,25.763-26.965c1.476-1.218,2.999-2.383,4.514-3.551
		c14.744-11.354,31.007-14.378,48.745-8.666c6.734,2.168,13.305,4.839,20.021,7.073c15.057,5.009,30.142,9.944,45.25,14.797
		c11.14,3.577,21.707,1.902,31.216-4.694c8.641-5.993,16.982-12.435,25.261-18.926c10.395-8.157,20.373-16.856,30.938-24.778
		c9.713-7.279,20.346-13.079,32.668-14.673c30.596-3.963,59.493,0.246,84.026,20.359c22.577,18.51,35.924,42.411,38.279,71.963
		c1.504,18.853-1.18,37.054-8.218,54.571c-8.061,20.063-21.142,35.824-40.71,46.208c0.156,1.49,0.228,2.979,0.482,4.436
		c4.99,28.515-8.386,50.14-36.395,56.449c-28.651,6.453-55.54,1.494-79.602-16.073c-1.681-1.227-3.205-2.658-5.205-4.333
		c5.459-6.256,10.701-12.259,16.133-18.479c1.345,0.756,2.529,1.285,3.567,2.022c12.021,8.535,25.459,13.137,40.087,14.214
		c8.713,0.64,17.255-0.391,25.155-4.423c10.741-5.486,15.008-16.613,10.636-27.722c-3.296-8.384-10.178-12.137-18.582-13.484
		c-8.126-1.306-16.299-2.32-24.448-3.475c-7.457-1.057-14.611-3.134-21.15-6.924c-14.221-8.24-21.526-20.68-22.408-37.503
		c8.199,0,16.149,0,24.278,0c0.088,0.089,0.512,0.312,0.586,0.618c2.795,11.417,11.066,16.493,21.759,18.495
		c6.768,1.266,13.602,2.258,20.443,3.042c16.205,1.852,29.73,8.344,39.347,22.443c1.452-0.641,2.862-1.097,4.104-1.838
		c10.932-6.545,19.544-15.443,25.684-26.543c13.474-24.352,17.155-50.264,10.307-77.204c-9.288-36.546-40.831-62.7-78.258-66.176
		c-9.047-0.84-17.984-0.486-26.941,0.444c-7.368,0.765-14.016,3.696-20.374,7.357c-11.017,6.347-20.673,14.512-30.36,22.641
		c-6.896,5.787-13.674,11.739-20.798,17.232c-5.293,4.08-10.934,7.756-16.651,11.233c-11.193,6.811-23.354,8.757-35.901,4.975
		c-16.652-5.018-33.11-10.685-49.653-16.073c-7.814-2.542-15.548-5.387-23.465-7.541c-9.525-2.594-18.592-0.753-27.054,4.234
		c-7.834,4.618-14.615,10.547-20.725,17.186c-6.093,6.623-11.955,13.468-17.634,20.448c-2.03,2.497-4.11,3.446-7.263,3.413
		c-14.177-0.138-28.359-0.061-42.539-0.061C200.049,231.787,197.993,231.787,195.686,231.787z"/>
	<path fill-rule="evenodd" clip-rule="evenodd" fill="#FFFFFF" d="M442.951,273.357c0,39.082,0,77.727,0,117.167
		c-7.981,0.535-15.91,0.145-24.673,0.21c-0.056-7.142-0.131-13.946-0.16-20.749c-0.024-6.707-0.004-13.412-0.004-20.118
		c0-6.896,0-13.791,0-20.688c0-6.705,0-13.412,0-20.115c0-6.807,0-13.611,0-20.416c-0.473-0.077-0.944-0.154-1.416-0.232
		c-11.362,26.021-22.723,52.042-34.157,78.227c-7.062,0-13.894,0-21.129,0c-11.424-26.168-22.862-52.359-34.301-78.557
		c-0.431,0.084-0.858,0.171-1.289,0.255c0,33.905,0,67.813,0,102.073c-8.641,0-16.58,0-24.907,0c0-39.031,0-77.819,0-116.99
		c15.047,0,29.903,0,45.348,0c8.409,19.067,16.966,38.462,26.051,59.061c9.333-20.074,17.11-39.676,25.889-59.129
		C412.891,273.357,427.555,273.357,442.951,273.357z"/>
	<path fill-rule="evenodd" clip-rule="evenodd" fill="#FFFFFF" d="M276.498,390.507c-35.674,0-70.648,0-105.971,0
		c0-39.058,0-77.848,0-117.053c7.957,0,15.903,0,24.658,0c0.042,7.672,0.101,15.445,0.122,23.218
		c0.021,7.852,0.005,15.704,0.005,23.557c0,7.659,0,15.318,0,22.98c0,7.786,0,15.57,0,23.966c27.456,0,54.164,0,81.186,0
		C276.498,375.175,276.498,382.548,276.498,390.507z"/>
	<path fill-rule="evenodd" clip-rule="evenodd" fill="#FFFFFF" d="M580.865,240.002c-4.549,1.184-90.069,1.464-97.672,0.267
		c2.499-2.412,4.465-4.631,6.744-6.46c8.639-6.938,18.811-10.125,29.631-11.089c21.77-1.939,41.583,4.034,59.865,15.634
		C579.975,238.697,580.315,239.356,580.865,240.002z"/>
	<path fill-rule="evenodd" clip-rule="evenodd" fill="#FFFFFF" d="M300.883,240.563c0-3.813,0.214-7.647-0.089-11.452
		c-0.12-1.509-0.473-3.703,0.852-4.816c1.289-1.081,3.519-0.793,5.065-0.732c2.125,0.08,4.247,0.13,6.373,0.17
		c3.05,0.056,6.867-1.074,9.754,0.173c3.744,1.617,4.487,6.592,6.033,9.873c0.954,2.026,1.709,4.143,2.783,6.784
		C321.116,240.563,311.178,240.563,300.883,240.563z"/>
	<path fill-rule="evenodd" clip-rule="evenodd" fill="#FFFFFF" d="M412.508,240.193c2.101-4.956,4.084-9.85,6.29-14.64
		c0.383-0.828,1.702-1.714,2.605-1.733c7.006-0.143,14.019-0.077,21.417-0.077c0,5.822,0,11.078,0,16.36
		C438.76,241.237,418.586,241.387,412.508,240.193z"/>
	<g>
		<path fill="#FFFFFF" d="M172.036,435.615v-23.067h1.342v21.743h6.751v1.324H172.036z"/>
		<path fill="#FFFFFF" d="M193.929,435.615v-2.293c-1.455,1.679-3.302,2.517-5.538,2.517c-2.017,0-3.706-0.655-5.072-1.97
			c-1.39-1.336-2.082-2.971-2.082-4.908c0-1.94,0.683-3.565,2.049-4.878c1.384-1.334,3.087-2.004,5.104-2.004
			c2.212,0,4.06,0.839,5.538,2.518v-2.323h1.376v13.342H193.929z M192.484,425.019c-1.142-1.1-2.507-1.646-4.093-1.646
			c-1.614,0-2.98,0.537-4.098,1.613c-1.142,1.1-1.712,2.424-1.712,3.976c0,1.532,0.57,2.841,1.712,3.939
			c1.141,1.098,2.506,1.648,4.098,1.648c1.609,0,2.975-0.539,4.093-1.615c1.142-1.1,1.713-2.422,1.713-3.973
			C194.197,427.43,193.625,426.117,192.484,425.019z"/>
		<path fill="#FFFFFF" d="M211.188,433.84c-1.389,1.332-3.089,1.999-5.104,1.999c-2.306,0-4.196-0.89-5.675-2.68v2.456h-1.375
			v-23.906h1.375v13.051c1.456-1.786,3.345-2.681,5.675-2.681c2.015,0,3.705,0.656,5.072,1.971c1.387,1.334,2.08,2.971,2.08,4.911
			C213.235,430.898,212.554,432.523,211.188,433.84z M210.179,425.019c-1.141-1.1-2.508-1.646-4.096-1.646
			c-1.612,0-2.977,0.537-4.098,1.613c-1.142,1.1-1.713,2.424-1.713,3.976c0,1.532,0.571,2.841,1.713,3.939
			c1.144,1.098,2.507,1.648,4.098,1.648c1.61,0,2.976-0.539,4.096-1.615c1.142-1.1,1.712-2.422,1.712-3.973
			C211.892,427.43,211.321,426.117,210.179,425.019z"/>
		<path fill="#FFFFFF" d="M227.973,433.84c-1.387,1.332-3.087,1.999-5.101,1.999c-2.014,0-3.705-0.655-5.071-1.97
			c-1.387-1.336-2.08-2.971-2.08-4.908c0-1.918,0.693-3.544,2.08-4.878c1.366-1.357,3.057-2.035,5.071-2.035
			c1.991,0,3.682,0.664,5.069,2.002c1.389,1.334,2.082,2.971,2.082,4.911C230.022,430.898,229.339,432.523,227.973,433.84z
			 M227,424.985c-1.118-1.099-2.494-1.646-4.128-1.646c-1.57,0-2.921,0.56-4.063,1.679c-1.165,1.12-1.748,2.433-1.748,3.942
			c0,1.532,0.573,2.841,1.715,3.939c1.142,1.098,2.505,1.648,4.096,1.648c1.611,0,2.978-0.539,4.095-1.615
			c1.142-1.1,1.712-2.422,1.712-3.973C228.679,427.386,228.118,426.062,227,424.985z"/>
		<path fill="#FFFFFF" d="M240.026,424.242c-0.357-0.258-0.736-0.464-1.138-0.612c-0.404-0.149-0.831-0.225-1.278-0.225
			c-0.381,0-0.739,0.111-1.073,0.339c-0.337,0.227-0.629,0.502-0.873,0.839c-0.248,0.335-0.444,0.704-0.589,1.114
			s-0.218,0.786-0.218,1.132v8.786h-1.377v-13.342h1.377v1.81c0.291-0.497,0.671-0.949,1.142-1.357
			c0.47-0.412,0.985-0.612,1.546-0.612c0.692,0,1.263,0.073,1.71,0.226c0.447,0.147,0.952,0.417,1.511,0.805L240.026,424.242z"/>
		<path fill="#FFFFFF" d="M254.868,435.615v-2.293c-1.455,1.679-3.302,2.517-5.538,2.517c-2.017,0-3.706-0.655-5.071-1.97
			c-1.39-1.336-2.082-2.971-2.082-4.908c0-1.94,0.683-3.565,2.049-4.878c1.384-1.334,3.087-2.004,5.104-2.004
			c2.215,0,4.06,0.839,5.538,2.518v-2.323h1.376v13.342H254.868z M253.425,425.019c-1.144-1.1-2.507-1.646-4.095-1.646
			c-1.615,0-2.98,0.537-4.099,1.613c-1.142,1.1-1.712,2.424-1.712,3.976c0,1.532,0.57,2.841,1.712,3.939
			c1.142,1.098,2.507,1.648,4.099,1.648c1.609,0,2.975-0.539,4.095-1.615c1.139-1.1,1.712-2.422,1.712-3.973
			C255.137,427.43,254.564,426.117,253.425,425.019z"/>
		<path fill="#FFFFFF" d="M262.423,423.596v12.02h-1.377v-12.02h-1.878v-1.322h1.878v-5.849h1.377v5.849h3.224v1.322H262.423z"/>
		<path fill="#FFFFFF" d="M278.339,433.84c-1.39,1.332-3.09,1.999-5.104,1.999c-2.016,0-3.705-0.655-5.071-1.97
			c-1.387-1.336-2.082-2.971-2.082-4.908c0-1.918,0.695-3.544,2.082-4.878c1.366-1.357,3.055-2.035,5.071-2.035
			c1.993,0,3.682,0.664,5.069,2.002c1.387,1.334,2.084,2.971,2.084,4.911C280.388,430.898,279.702,432.523,278.339,433.84z
			 M277.363,424.985c-1.12-1.099-2.495-1.646-4.128-1.646c-1.567,0-2.921,0.56-4.063,1.679c-1.165,1.12-1.747,2.433-1.747,3.942
			c0,1.532,0.57,2.841,1.715,3.939c1.141,1.098,2.505,1.648,4.095,1.648c1.612,0,2.976-0.539,4.096-1.615
			c1.141-1.1,1.712-2.422,1.712-3.973C279.043,427.386,278.484,426.062,277.363,424.985z"/>
		<path fill="#FFFFFF" d="M290.39,424.242c-0.357-0.258-0.737-0.464-1.142-0.612c-0.402-0.149-0.828-0.225-1.274-0.225
			c-0.381,0-0.739,0.111-1.074,0.339c-0.337,0.227-0.627,0.502-0.875,0.839c-0.246,0.335-0.442,0.704-0.587,1.114
			s-0.217,0.786-0.217,1.132v8.786h-1.378v-13.342h1.378v1.81c0.29-0.497,0.671-0.949,1.141-1.357
			c0.47-0.412,0.985-0.612,1.543-0.612c0.695,0,1.264,0.073,1.712,0.226c0.449,0.147,0.953,0.417,1.511,0.805L290.39,424.242z"/>
		<path fill="#FFFFFF" d="M295.192,419.882c-0.245,0-0.503-0.098-0.772-0.29c-0.201-0.196-0.313-0.454-0.337-0.776
			c0-0.581,0.37-0.936,1.109-1.066c0.559,0,0.929,0.354,1.106,1.066C296.298,419.526,295.931,419.882,295.192,419.882z
			 M294.488,435.615v-13.342h1.375v13.342H294.488z"/>
		<path fill="#FFFFFF" d="M311.643,433.84c-1.389,1.332-3.087,1.999-5.104,1.999c-2.013,0-3.705-0.655-5.071-1.97
			c-1.385-1.336-2.079-2.971-2.079-4.908c0-1.918,0.694-3.544,2.079-4.878c1.366-1.357,3.058-2.035,5.071-2.035
			c1.994,0,3.682,0.664,5.072,2.002c1.387,1.334,2.082,2.971,2.082,4.911C313.692,430.898,313.009,432.523,311.643,433.84z
			 M310.67,424.985c-1.12-1.099-2.496-1.646-4.131-1.646c-1.566,0-2.918,0.56-4.06,1.679c-1.165,1.12-1.748,2.433-1.748,3.942
			c0,1.532,0.57,2.841,1.714,3.939c1.142,1.098,2.503,1.648,4.093,1.648c1.615,0,2.978-0.539,4.099-1.615
			c1.142-1.1,1.712-2.422,1.712-3.973C312.349,427.386,311.788,426.062,310.67,424.985z"/>
		<path fill="#FFFFFF" d="M332.257,435.871c-2.06,0-3.773-0.654-5.136-1.969c-1.366-1.315-2.047-2.961-2.047-4.941
			c0-1.981,0.681-3.631,2.047-4.943c1.363-1.315,3.076-1.97,5.136-1.97c1.769,0,3.179,0.387,4.231,1.161v1.582l-0.875-0.549
			l-0.94-0.483c-0.852-0.278-1.656-0.419-2.417-0.419c-1.723,0-3.123,0.516-4.198,1.547c-1.095,1.058-1.645,2.414-1.645,4.074
			c0,1.634,0.55,2.981,1.645,4.038c1.099,1.053,2.498,1.582,4.198,1.582c1.612,0,3.022-0.518,4.231-1.551v1.647
			C335.235,435.475,333.822,435.871,332.257,435.871z"/>
		<path fill="#FFFFFF" d="M349.545,433.84c-1.384,1.332-3.087,1.999-5.102,1.999c-2.013,0-3.703-0.655-5.068-1.97
			c-1.389-1.336-2.082-2.971-2.082-4.908c0-1.918,0.693-3.544,2.082-4.878c1.366-1.357,3.055-2.035,5.068-2.035
			c1.994,0,3.682,0.664,5.069,2.002c1.39,1.334,2.084,2.971,2.084,4.911C351.597,430.898,350.912,432.523,349.545,433.84z
			 M348.575,424.985c-1.12-1.099-2.496-1.646-4.131-1.646c-1.567,0-2.921,0.56-4.063,1.679c-1.165,1.12-1.745,2.433-1.745,3.942
			c0,1.532,0.571,2.841,1.712,3.939c1.142,1.098,2.507,1.648,4.095,1.648c1.612,0,2.978-0.539,4.096-1.615
			c1.141-1.1,1.712-2.422,1.712-3.973C350.252,427.386,349.691,426.062,348.575,424.985z"/>
		<path fill="#FFFFFF" d="M355.424,435.615v-23.906h1.34v23.906H355.424z"/>
		<path fill="#FFFFFF" d="M373.152,435.615v-2.293c-1.459,1.679-3.303,2.517-5.543,2.517c-2.012,0-3.705-0.655-5.066-1.97
			c-1.389-1.336-2.082-2.971-2.082-4.908c0-1.94,0.681-3.565,2.044-4.878c1.39-1.334,3.092-2.004,5.104-2.004
			c2.217,0,4.065,0.839,5.543,2.518v-2.323h1.376v13.342H373.152z M371.707,425.019c-1.142-1.1-2.508-1.646-4.099-1.646
			c-1.609,0-2.975,0.537-4.096,1.613c-1.139,1.1-1.712,2.424-1.712,3.976c0,1.532,0.573,2.841,1.712,3.939
			c1.144,1.098,2.51,1.648,4.096,1.648c1.611,0,2.978-0.539,4.099-1.615c1.141-1.1,1.712-2.422,1.712-3.973
			C373.419,427.43,372.848,426.117,371.707,425.019z"/>
		<path fill="#FFFFFF" d="M390.405,433.84c-1.387,1.332-3.087,1.999-5.102,1.999c-2.304,0-4.199-0.89-5.675-2.68v2.456h-1.377
			v-23.906h1.377v13.051c1.453-1.786,3.348-2.681,5.675-2.681c2.014,0,3.706,0.656,5.069,1.971c1.39,1.334,2.084,2.971,2.084,4.911
			C392.457,430.898,391.772,432.523,390.405,433.84z M389.4,425.019c-1.142-1.1-2.505-1.646-4.096-1.646
			c-1.611,0-2.978,0.537-4.096,1.613c-1.142,1.1-1.712,2.424-1.712,3.976c0,1.532,0.571,2.841,1.712,3.939
			c1.142,1.098,2.505,1.648,4.096,1.648c1.612,0,2.978-0.539,4.096-1.615c1.141-1.1,1.712-2.422,1.712-3.973
			C391.112,427.43,390.541,426.117,389.4,425.019z"/>
		<path fill="#FFFFFF" d="M407.195,433.84c-1.387,1.332-3.09,1.999-5.104,1.999s-3.705-0.655-5.068-1.97
			c-1.388-1.336-2.083-2.971-2.083-4.908c0-1.918,0.695-3.544,2.083-4.878c1.363-1.357,3.055-2.035,5.068-2.035
			c1.993,0,3.682,0.664,5.07,2.002c1.391,1.334,2.082,2.971,2.082,4.911C409.244,430.898,408.561,432.523,407.195,433.84z
			 M406.223,424.985c-1.118-1.099-2.496-1.646-4.131-1.646c-1.568,0-2.92,0.56-4.061,1.679c-1.166,1.12-1.748,2.433-1.748,3.942
			c0,1.532,0.571,2.841,1.712,3.939c1.144,1.098,2.507,1.648,4.096,1.648c1.611,0,2.977-0.539,4.096-1.615
			c1.145-1.1,1.713-2.422,1.713-3.973C407.9,427.386,407.342,426.062,406.223,424.985z"/>
		<path fill="#FFFFFF" d="M419.248,424.242c-0.356-0.258-0.737-0.464-1.143-0.612c-0.402-0.149-0.826-0.225-1.272-0.225
			c-0.384,0-0.739,0.111-1.076,0.339c-0.337,0.227-0.628,0.502-0.872,0.839c-0.246,0.335-0.443,0.704-0.587,1.114
			c-0.146,0.41-0.221,0.786-0.221,1.132v8.786h-1.376v-13.342h1.376v1.81c0.29-0.497,0.674-0.949,1.142-1.357
			c0.473-0.412,0.986-0.612,1.547-0.612c0.691,0,1.265,0.073,1.712,0.226c0.445,0.147,0.952,0.417,1.508,0.805L419.248,424.242z"/>
		<path fill="#FFFFFF" d="M434.091,435.615v-2.293c-1.457,1.679-3.303,2.517-5.541,2.517c-2.015,0-3.705-0.655-5.069-1.97
			c-1.389-1.336-2.082-2.971-2.082-4.908c0-1.94,0.684-3.565,2.049-4.878c1.388-1.334,3.088-2.004,5.103-2.004
			c2.217,0,4.062,0.839,5.541,2.518v-2.323h1.378v13.342H434.091z M432.646,425.019c-1.14-1.1-2.506-1.646-4.096-1.646
			c-1.612,0-2.976,0.537-4.096,1.613c-1.142,1.1-1.713,2.424-1.713,3.976c0,1.532,0.571,2.841,1.713,3.939
			c1.143,1.098,2.508,1.648,4.096,1.648c1.611,0,2.978-0.539,4.096-1.615c1.144-1.1,1.712-2.422,1.712-3.973
			C434.357,427.43,433.789,426.117,432.646,425.019z"/>
		<path fill="#FFFFFF" d="M441.644,423.596v12.02h-1.375v-12.02h-1.883v-1.322h1.883v-5.849h1.375v5.849h3.224v1.322H441.644z"/>
		<path fill="#FFFFFF" d="M448.896,419.882c-0.247,0-0.503-0.098-0.771-0.29c-0.202-0.196-0.313-0.454-0.338-0.776
			c0-0.581,0.37-0.936,1.108-1.066c0.558,0,0.93,0.354,1.109,1.066C450.006,419.526,449.637,419.882,448.896,419.882z
			 M448.193,435.615v-13.342h1.375v13.342H448.193z"/>
		<path fill="#FFFFFF" d="M459.375,436.194l-6.551-13.921h1.479l5.034,10.627l5.071-10.627h1.543L459.375,436.194z"/>
		<path fill="#FFFFFF" d="M479.953,433.84c-1.387,1.332-3.089,1.999-5.104,1.999s-3.705-0.655-5.068-1.97
			c-1.388-1.336-2.082-2.971-2.082-4.908c0-1.918,0.694-3.544,2.082-4.878c1.363-1.357,3.054-2.035,5.068-2.035
			c1.993,0,3.682,0.664,5.071,2.002c1.389,1.334,2.082,2.971,2.082,4.911C482.003,430.898,481.319,432.523,479.953,433.84z
			 M478.98,424.985c-1.117-1.099-2.497-1.646-4.131-1.646c-1.567,0-2.919,0.56-4.061,1.679c-1.165,1.12-1.747,2.433-1.747,3.942
			c0,1.532,0.569,2.841,1.712,3.939c1.144,1.098,2.508,1.648,4.096,1.648c1.612,0,2.978-0.539,4.097-1.615
			c1.143-1.1,1.712-2.422,1.712-3.973C480.658,427.386,480.098,426.062,478.98,424.985z"/>
		<path fill="#FFFFFF" d="M509.803,435.615v-9.207c0-0.818-0.28-1.53-0.837-2.133c-0.562-0.601-1.366-0.903-2.419-0.903
			c-2.172,0-3.259,1.011-3.259,3.036v9.207h-1.375v-9.207c0-0.903-0.314-1.625-0.94-2.166c-0.65-0.581-1.422-0.87-2.315-0.87
			c-0.919,0-1.69,0.281-2.318,0.838c-0.628,0.537-0.94,1.272-0.94,2.198v9.207h-1.375v-13.342h1.375v1.322
			c0.674-1.011,1.757-1.517,3.259-1.517c1.79,0,3.111,0.698,3.961,2.1c0.806-1.401,2.112-2.1,3.929-2.1
			c1.387,0,2.508,0.379,3.356,1.13c0.85,0.775,1.278,1.842,1.278,3.199v9.207H509.803z"/>
		<path fill="#FFFFFF" d="M524.443,434.452c-0.92,0.947-2.206,1.419-3.862,1.419c-1.634,0-2.899-0.462-3.794-1.388
			c-0.896-0.926-1.345-2.218-1.345-3.873v-8.337h1.378v8.337c0,1.267,0.29,2.248,0.872,2.938c0.605,0.688,1.568,1.033,2.889,1.033
			c2.574,0,3.862-1.324,3.862-3.971v-8.337h1.343v8.337C525.786,432.24,525.337,433.526,524.443,434.452z"/>
		<path fill="#FFFFFF" d="M536.832,434.771c-0.896,0.735-1.973,1.1-3.224,1.1c-2.148,0-3.763-0.936-4.836-2.811l1.177-0.678
			c0.379,0.668,0.838,1.186,1.376,1.552c0.56,0.408,1.318,0.614,2.283,0.614c2.103,0,3.158-0.862,3.158-2.583
			c0-0.753-0.373-1.413-1.109-1.97c-0.225-0.131-0.543-0.277-0.959-0.44c-0.414-0.16-0.921-0.347-1.524-0.564
			c-1.122-0.387-1.927-0.775-2.419-1.161c-0.717-0.562-1.073-1.37-1.073-2.423c0-0.909,0.356-1.683,1.073-2.325
			c0.693-0.67,1.6-1.003,2.72-1.003c1.544,0,2.851,0.516,3.927,1.551l-1.008,0.84c-0.76-0.733-1.735-1.098-2.919-1.098
			c-1.611,0-2.419,0.678-2.419,2.035c0,0.603,0.247,1.097,0.739,1.482c0.402,0.304,1.039,0.595,1.914,0.875
			c0.759,0.259,1.39,0.501,1.88,0.727c0.491,0.227,0.861,0.427,1.107,0.599c0.963,0.71,1.442,1.669,1.442,2.876
			C538.139,433.126,537.704,434.063,536.832,434.771z"/>
		<path fill="#FFFFFF" d="M542.068,419.882c-0.247,0-0.502-0.098-0.771-0.29c-0.201-0.196-0.313-0.454-0.337-0.776
			c0-0.581,0.369-0.936,1.108-1.066c0.56,0,0.928,0.354,1.109,1.066C543.178,419.526,542.808,419.882,542.068,419.882z
			 M541.365,435.615v-13.342h1.374v13.342H541.365z"/>
		<path fill="#FFFFFF" d="M553.855,435.871c-2.061,0-3.773-0.654-5.139-1.969c-1.366-1.315-2.047-2.961-2.047-4.941
			c0-1.981,0.681-3.631,2.047-4.943c1.365-1.315,3.078-1.97,5.139-1.97c1.768,0,3.176,0.387,4.229,1.161v1.582l-0.871-0.549
			l-0.94-0.483c-0.85-0.278-1.659-0.419-2.417-0.419c-1.724,0-3.125,0.516-4.198,1.547c-1.098,1.058-1.646,2.414-1.646,4.074
			c0,1.634,0.548,2.981,1.646,4.038c1.097,1.053,2.495,1.582,4.198,1.582c1.611,0,3.02-0.518,4.229-1.551v1.647
			C556.831,435.475,555.423,435.871,553.855,435.871z"/>
		<path fill="#FFFFFF" d="M571.581,435.615v-2.293c-1.457,1.679-3.3,2.517-5.542,2.517c-2.014,0-3.705-0.655-5.066-1.97
			c-1.389-1.336-2.084-2.971-2.084-4.908c0-1.94,0.684-3.565,2.05-4.878c1.387-1.334,3.087-2.004,5.101-2.004
			c2.218,0,4.064,0.839,5.542,2.518v-2.323h1.378v13.342H571.581z M570.139,425.019c-1.143-1.1-2.509-1.646-4.1-1.646
			c-1.611,0-2.975,0.537-4.095,1.613c-1.142,1.1-1.713,2.424-1.713,3.976c0,1.532,0.571,2.841,1.713,3.939
			c1.144,1.098,2.507,1.648,4.095,1.648c1.612,0,2.979-0.539,4.1-1.615c1.141-1.1,1.709-2.422,1.709-3.973
			C571.848,427.43,571.279,426.117,570.139,425.019z"/>
		<path fill="#FFFFFF" d="M577.422,435.615v-23.906h1.343v23.906H577.422z"/>
		<path fill="#FFFFFF" d="M598.877,434.771c-0.894,0.735-1.971,1.1-3.224,1.1c-2.147,0-3.762-0.936-4.833-2.811l1.175-0.678
			c0.378,0.668,0.839,1.186,1.375,1.552c0.559,0.408,1.321,0.614,2.283,0.614c2.102,0,3.157-0.862,3.157-2.583
			c0-0.753-0.37-1.413-1.108-1.97c-0.225-0.131-0.543-0.277-0.956-0.44c-0.415-0.16-0.926-0.347-1.528-0.564
			c-1.12-0.387-1.926-0.775-2.416-1.161c-0.719-0.562-1.076-1.37-1.076-2.423c0-0.909,0.357-1.683,1.076-2.325
			c0.691-0.67,1.6-1.003,2.719-1.003c1.543,0,2.853,0.516,3.927,1.551l-1.007,0.84c-0.762-0.733-1.735-1.098-2.92-1.098
			c-1.612,0-2.417,0.678-2.417,2.035c0,0.603,0.245,1.097,0.736,1.482c0.405,0.304,1.041,0.595,1.913,0.875
			c0.763,0.259,1.39,0.501,1.881,0.727c0.494,0.227,0.862,0.427,1.109,0.599c0.961,0.71,1.443,1.669,1.443,2.876
			C600.187,433.126,599.749,434.063,598.877,434.771z"/>
		<path fill="#FFFFFF" d="M612.006,434.452c-0.917,0.947-2.206,1.419-3.862,1.419c-1.636,0-2.9-0.462-3.794-1.388
			c-0.896-0.926-1.345-2.218-1.345-3.873v-8.337h1.378v8.337c0,1.267,0.29,2.248,0.872,2.938c0.605,0.688,1.567,1.033,2.889,1.033
			c2.573,0,3.862-1.324,3.862-3.971v-8.337h1.342v8.337C613.348,432.24,612.901,433.526,612.006,434.452z"/>
		<path fill="#FFFFFF" d="M624.128,424.242c-0.361-0.258-0.742-0.464-1.144-0.612c-0.403-0.149-0.827-0.225-1.275-0.225
			c-0.381,0-0.739,0.111-1.073,0.339c-0.338,0.227-0.631,0.502-0.876,0.839c-0.245,0.335-0.442,0.704-0.587,1.114
			c-0.146,0.41-0.218,0.786-0.218,1.132v8.786h-1.377v-13.342h1.377v1.81c0.29-0.497,0.671-0.949,1.139-1.357
			c0.474-0.412,0.987-0.612,1.547-0.612c0.694,0,1.266,0.073,1.712,0.226c0.446,0.147,0.952,0.417,1.511,0.805L624.128,424.242z"/>
	</g>
	<line fill="#FFFFFE" stroke="#FFFFFF" stroke-miterlimit="10" x1="170.602" y1="245.576" x2="195.199" y2="245.576"/>
	<line fill="#FFFFFE" stroke="#FFFFFF" stroke-miterlimit="10" x1="170.602" y1="251.366" x2="195.199" y2="251.366"/>
	<line fill="#FFFFFE" stroke="#FFFFFF" stroke-miterlimit="10" x1="170.602" y1="257.082" x2="195.199" y2="257.082"/>
	<line fill="#FFFFFE" stroke="#FFFFFF" stroke-miterlimit="10" x1="170.602" y1="262.769" x2="195.199" y2="262.769"/>
	<line fill="#FFFFFE" stroke="#FFFFFF" stroke-miterlimit="10" x1="170.602" y1="268.511" x2="195.199" y2="268.511"/>
	<polygon fill="#FFFFFE" points="300.883,256.262 338.662,256.262 339.647,258.583 300.883,258.583 	"/>
	<polygon fill="#FFFFFE" points="300.916,262.172 341.236,262.172 342.288,264.493 300.916,264.493 	"/>
	<polygon fill="#FFFFFE" points="300.916,268.13 343.884,268.13 345.003,270.45 300.916,270.45 	"/>
	<polygon fill="#FFFFFE" points="442.82,244.077 410.244,244.077 409.392,246.397 442.82,246.397 	"/>
	<polygon fill="#FFFFFE" points="442.82,255.911 405.041,255.911 404.057,258.23 442.82,258.23 	"/>
	<polygon fill="#FFFFFE" points="442.787,261.821 402.469,261.821 401.415,264.142 442.787,264.142 	"/>
	<polygon fill="#FFFFFE" points="442.787,267.779 399.82,267.779 398.699,270.1 442.787,270.1 	"/>
	<polygon fill="#FFFFFE" points="581.99,244.077 482.446,244.077 479.851,246.397 581.99,246.397 	"/>
	<polygon fill="#FFFFFE" points="506.142,250.18 477.945,250.18 477.211,252.5 506.142,252.5 	"/>
	<polygon fill="#FFFFFE" points="501.551,255.848 476.564,255.848 475.911,258.168 501.551,258.168 	"/>
	<polygon fill="#FFFFFE" points="497.764,267.844 473.479,267.844 472.845,270.165 497.764,270.165 	"/>
	<polygon fill="#FFFFFE" points="579.695,250.416 549.009,250.416 548.21,252.736 579.695,252.736 	"/>
</g>
</svg>
